<svg width="139" height="46" viewBox="0 0 139 46" fill="none" xmlns="http://www.w3.org/2000/svg">
<path d="M35.7422 28V27.538C36.0222 27.538 36.2368 27.4633 36.3862 27.314C36.5355 27.1647 36.6568 26.9593 36.7502 26.698C36.8528 26.4367 36.9695 26.1333 37.1002 25.788L39.9842 17.934H40.3202L43.4422 25.9C43.5168 26.096 43.6008 26.348 43.6942 26.656C43.7875 26.964 43.8248 27.2253 43.8062 27.44C43.9648 27.4307 44.1235 27.4213 44.2822 27.412C44.4408 27.4027 44.5995 27.3933 44.7582 27.384V28H41.5522V27.538C41.9068 27.5287 42.1402 27.4493 42.2522 27.3C42.3642 27.1507 42.4062 26.9733 42.3782 26.768C42.3502 26.5627 42.3035 26.376 42.2382 26.208L41.7482 24.892L38.1082 24.976L37.6182 26.474C37.5528 26.698 37.4922 26.8753 37.4362 27.006C37.3895 27.1367 37.3335 27.2813 37.2682 27.44C37.4548 27.4307 37.6368 27.4213 37.8142 27.412C38.0008 27.4027 38.1828 27.3933 38.3602 27.384V28H35.7422ZM38.3182 24.374H41.5522L40.5582 21.7C40.4555 21.4107 40.3482 21.126 40.2362 20.846C40.1335 20.5567 40.0308 20.2673 39.9282 19.978H39.9002C39.8068 20.2393 39.7088 20.5007 39.6062 20.762C39.5128 21.0233 39.4148 21.2893 39.3122 21.56L38.3182 24.374ZM48.2018 28.224C47.6325 28.224 47.1192 28.084 46.6618 27.804C46.2045 27.5147 45.8405 27.104 45.5698 26.572C45.3085 26.04 45.1778 25.4147 45.1778 24.696C45.1778 23.9307 45.3318 23.254 45.6398 22.666C45.9478 22.078 46.3725 21.616 46.9138 21.28C47.4645 20.944 48.0852 20.776 48.7758 20.776C49.0838 20.776 49.3872 20.818 49.6858 20.902C49.9938 20.9767 50.2365 21.0653 50.4138 21.168V19.25C50.4138 19.1007 50.4138 18.9607 50.4138 18.83C50.4232 18.69 50.4372 18.5267 50.4558 18.34C50.2878 18.3493 50.1198 18.3587 49.9518 18.368C49.7932 18.3773 49.6298 18.3867 49.4618 18.396V17.808C49.8725 17.808 50.1898 17.7893 50.4138 17.752C50.6378 17.7147 50.8058 17.668 50.9178 17.612C51.0392 17.556 51.1325 17.4953 51.1978 17.43H51.6038V26.516C51.6038 26.6653 51.5992 26.8147 51.5898 26.964C51.5805 27.1133 51.5665 27.2813 51.5478 27.468C51.7158 27.4587 51.8792 27.4493 52.0378 27.44C52.2058 27.4307 52.3738 27.4213 52.5418 27.412V28H50.5398C50.5118 27.86 50.4885 27.734 50.4698 27.622C50.4605 27.5007 50.4512 27.384 50.4418 27.272C50.1805 27.5613 49.8585 27.7947 49.4758 27.972C49.0932 28.14 48.6685 28.224 48.2018 28.224ZM48.7058 27.538C49.0138 27.538 49.3218 27.4493 49.6298 27.272C49.9472 27.0947 50.2085 26.8753 50.4138 26.614C50.4045 26.502 50.3998 26.3853 50.3998 26.264C50.3998 26.1333 50.3998 25.9933 50.3998 25.844L50.4138 21.812C50.1898 21.644 49.9425 21.5227 49.6718 21.448C49.4105 21.364 49.1398 21.322 48.8598 21.322C48.3932 21.322 47.9872 21.4573 47.6418 21.728C47.2965 21.9987 47.0352 22.3767 46.8578 22.862C46.6805 23.3473 46.6012 23.9167 46.6198 24.57C46.6385 25.1393 46.7272 25.648 46.8858 26.096C47.0538 26.544 47.2872 26.8987 47.5858 27.16C47.8938 27.412 48.2672 27.538 48.7058 27.538ZM56.1647 28.042L54.1627 23.478C54.0133 23.1233 53.8967 22.82 53.8127 22.568C53.7287 22.316 53.668 22.106 53.6307 21.938C53.6027 21.77 53.584 21.6347 53.5747 21.532L52.9727 21.574V21H55.5487V21.42C55.2687 21.42 55.0867 21.4947 55.0027 21.644C54.928 21.784 54.9187 21.9753 54.9747 22.218C55.0307 22.4513 55.1147 22.7033 55.2267 22.974L56.3047 25.438C56.3793 25.5967 56.4493 25.7647 56.5147 25.942C56.5893 26.11 56.6593 26.2873 56.7247 26.474H56.7387C56.7853 26.334 56.8367 26.1847 56.8927 26.026C56.958 25.8673 57.014 25.7133 57.0607 25.564L58.1807 22.498C58.2553 22.274 58.3347 22.078 58.4187 21.91C58.5027 21.742 58.5633 21.616 58.6007 21.532L57.7047 21.574V21H59.9167V21.42C59.7113 21.42 59.5387 21.49 59.3987 21.63C59.2587 21.77 59.1233 21.98 58.9927 22.26C58.8713 22.54 58.7267 22.89 58.5587 23.31L56.7247 28.042H56.1647ZM63.8927 28.224C63.2487 28.224 62.6653 28.0747 62.1427 27.776C61.6293 27.468 61.2233 27.0387 60.9247 26.488C60.626 25.928 60.4767 25.27 60.4767 24.514C60.4767 23.8607 60.6213 23.2493 60.9107 22.68C61.2093 22.1107 61.6247 21.6533 62.1567 21.308C62.6887 20.9533 63.3047 20.776 64.0047 20.776C64.3967 20.776 64.7607 20.8413 65.0967 20.972C65.442 21.0933 65.7453 21.2847 66.0067 21.546C66.268 21.798 66.4733 22.12 66.6227 22.512C66.772 22.8947 66.8467 23.3473 66.8467 23.87L61.9187 23.954C61.9187 24.6633 61.9933 25.2887 62.1427 25.83C62.3013 26.362 62.5533 26.7773 62.8987 27.076C63.244 27.3653 63.6873 27.51 64.2287 27.51C64.518 27.51 64.812 27.4587 65.1107 27.356C65.4187 27.2533 65.7033 27.1133 65.9647 26.936C66.226 26.7587 66.436 26.5627 66.5947 26.348L66.9307 26.628C66.6787 27.02 66.3753 27.3327 66.0207 27.566C65.666 27.7993 65.302 27.9673 64.9287 28.07C64.5553 28.1727 64.21 28.224 63.8927 28.224ZM61.9607 23.366H65.5307C65.5307 23.03 65.4793 22.708 65.3767 22.4C65.2833 22.0827 65.1247 21.826 64.9007 21.63C64.6767 21.4247 64.3827 21.322 64.0187 21.322C63.4773 21.322 63.0247 21.4853 62.6607 21.812C62.306 22.1293 62.0727 22.6473 61.9607 23.366ZM68.0926 28V27.58C68.3819 27.58 68.5826 27.51 68.6946 27.37C68.8066 27.2207 68.8719 27.02 68.8906 26.768C68.9092 26.5067 68.9186 26.208 68.9186 25.872L68.9326 22.68C68.9326 22.5307 68.9326 22.3813 68.9326 22.232C68.9419 22.0827 68.9606 21.9287 68.9886 21.77C68.8206 21.7793 68.6526 21.7887 68.4846 21.798C68.3259 21.8073 68.1626 21.8167 67.9946 21.826V21.238C68.4052 21.238 68.7132 21.2193 68.9186 21.182C69.1332 21.1447 69.2919 21.098 69.3946 21.042C69.4972 20.986 69.5812 20.9253 69.6466 20.86H70.0526C70.0619 20.9253 70.0666 21 70.0666 21.084C70.0759 21.168 70.0852 21.2613 70.0946 21.364C70.1039 21.4667 70.1086 21.5833 70.1086 21.714C70.3139 21.5367 70.5379 21.378 70.7806 21.238C71.0326 21.098 71.2939 20.986 71.5646 20.902C71.8446 20.818 72.1199 20.776 72.3906 20.776C73.2026 20.776 73.7952 21.0327 74.1686 21.546C74.5419 22.05 74.7286 22.8387 74.7286 23.912V26.516C74.7286 26.7027 74.7239 26.8707 74.7146 27.02C74.7146 27.16 74.7006 27.3093 74.6726 27.468C74.8219 27.4587 74.9666 27.454 75.1066 27.454C75.2559 27.4447 75.4052 27.4353 75.5546 27.426V28H72.6986V27.58C72.9879 27.58 73.1886 27.51 73.3006 27.37C73.4126 27.2207 73.4779 27.02 73.4966 26.768C73.5152 26.5067 73.5246 26.208 73.5246 25.872V23.912C73.5152 23.1093 73.3799 22.5027 73.1186 22.092C72.8666 21.6813 72.4652 21.4807 71.9146 21.49C71.5786 21.4993 71.2472 21.588 70.9206 21.756C70.6032 21.924 70.3372 22.1387 70.1226 22.4C70.1319 22.4747 70.1366 22.5587 70.1366 22.652C70.1366 22.7453 70.1366 22.8433 70.1366 22.946L70.1226 26.516C70.1226 26.7027 70.1179 26.8707 70.1086 27.02C70.1086 27.16 70.0946 27.3093 70.0666 27.468C70.2159 27.4587 70.3606 27.454 70.5006 27.454C70.6499 27.4447 70.7992 27.4353 70.9486 27.426V28H68.0926ZM79.1054 28.224C78.8908 28.224 78.6714 28.1913 78.4474 28.126C78.2234 28.07 78.0134 27.9533 77.8174 27.776C77.6308 27.5987 77.4814 27.342 77.3694 27.006C77.2574 26.6607 77.2014 26.208 77.2014 25.648L77.2294 21.588L76.1514 21.602V21C76.3941 20.9907 76.6414 20.902 76.8934 20.734C77.1454 20.5567 77.3694 20.3187 77.5654 20.02C77.7708 19.7213 77.9108 19.3947 77.9854 19.04H78.4614V21H80.8134V21.546L78.4614 21.574L78.4334 25.466C78.4334 25.886 78.4661 26.2453 78.5314 26.544C78.6061 26.8333 78.7228 27.0527 78.8814 27.202C79.0401 27.3513 79.2454 27.426 79.4974 27.426C79.7588 27.426 80.0014 27.3513 80.2254 27.202C80.4588 27.0527 80.6641 26.8473 80.8414 26.586L81.2194 26.894C81.0141 27.202 80.8088 27.4447 80.6034 27.622C80.4074 27.7993 80.2161 27.93 80.0294 28.014C79.8428 28.1073 79.6701 28.1633 79.5114 28.182C79.3528 28.21 79.2174 28.224 79.1054 28.224ZM84.8415 28.224C84.3375 28.224 83.9128 28.1307 83.5675 27.944C83.2315 27.7573 82.9748 27.44 82.7975 26.992C82.6295 26.544 82.5455 25.9373 82.5455 25.172V22.68C82.5455 22.5307 82.5455 22.3813 82.5455 22.232C82.5548 22.0827 82.5735 21.9287 82.6015 21.77C82.4428 21.7793 82.2795 21.7887 82.1115 21.798C81.9528 21.798 81.7942 21.8027 81.6355 21.812V21.238H82.0695C82.4708 21.238 82.7602 21.2007 82.9375 21.126C83.1242 21.042 83.2688 20.9533 83.3715 20.86H83.7775V25.13C83.7775 25.9327 83.8895 26.5347 84.1135 26.936C84.3468 27.328 84.7388 27.5193 85.2895 27.51C85.6442 27.5007 85.9802 27.3933 86.2975 27.188C86.6242 26.9733 86.8855 26.7213 87.0815 26.432V22.834C87.0815 22.61 87.0862 22.4187 87.0955 22.26C87.1048 22.092 87.1235 21.9287 87.1515 21.77C86.9835 21.7793 86.8155 21.7887 86.6475 21.798C86.4795 21.798 86.3115 21.8027 86.1435 21.812V21.238H86.5775C86.9788 21.238 87.2682 21.2007 87.4455 21.126C87.6322 21.042 87.7768 20.9533 87.8795 20.86H88.2855L88.2715 26.152C88.2715 26.3013 88.2668 26.5113 88.2575 26.782C88.2482 27.0527 88.2342 27.2813 88.2155 27.468C88.3835 27.4587 88.5515 27.4493 88.7195 27.44C88.8875 27.4307 89.0555 27.4213 89.2235 27.412V28H87.2215C87.1935 27.8413 87.1702 27.692 87.1515 27.552C87.1422 27.412 87.1328 27.2813 87.1235 27.16C86.8342 27.4493 86.4842 27.7013 86.0735 27.916C85.6628 28.1213 85.2522 28.224 84.8415 28.224ZM90.241 27.58C90.5303 27.58 90.731 27.51 90.843 27.37C90.955 27.2207 91.0203 27.02 91.039 26.768C91.0577 26.5067 91.067 26.208 91.067 25.872V22.68C91.067 22.5307 91.067 22.3813 91.067 22.232C91.0763 22.0827 91.095 21.9287 91.123 21.77C90.955 21.7793 90.787 21.7887 90.619 21.798C90.4603 21.798 90.297 21.8027 90.129 21.812V21.238H90.563C90.9643 21.238 91.2397 21.2007 91.389 21.126C91.5477 21.042 91.6783 20.9533 91.781 20.86H92.187C92.2057 21.0093 92.2197 21.196 92.229 21.42C92.2383 21.6347 92.2477 21.91 92.257 22.246C92.397 22.0127 92.5883 21.784 92.831 21.56C93.0737 21.336 93.3443 21.1493 93.643 21C93.951 20.8507 94.273 20.776 94.609 20.776C94.8703 20.776 95.099 20.846 95.295 20.986C95.491 21.126 95.589 21.35 95.589 21.658C95.589 21.7327 95.5657 21.826 95.519 21.938C95.4723 22.0407 95.3977 22.134 95.295 22.218C95.1923 22.2927 95.057 22.33 94.889 22.33C94.6837 22.3207 94.5203 22.2413 94.399 22.092C94.2777 21.9333 94.231 21.7513 94.259 21.546C94.0257 21.5367 93.783 21.5973 93.531 21.728C93.2883 21.8587 93.0597 22.0407 92.845 22.274C92.6303 22.498 92.439 22.764 92.271 23.072L92.285 26.516C92.285 26.7027 92.2803 26.8707 92.271 27.02C92.271 27.16 92.257 27.3093 92.229 27.468C92.3783 27.4587 92.523 27.454 92.663 27.454C92.8123 27.4447 92.9617 27.4353 93.111 27.426V28H90.241V27.58ZM99.5899 28.224C98.9459 28.224 98.3626 28.0747 97.8399 27.776C97.3266 27.468 96.9206 27.0387 96.6219 26.488C96.3233 25.928 96.1739 25.27 96.1739 24.514C96.1739 23.8607 96.3186 23.2493 96.6079 22.68C96.9066 22.1107 97.3219 21.6533 97.8539 21.308C98.3859 20.9533 99.0019 20.776 99.7019 20.776C100.094 20.776 100.458 20.8413 100.794 20.972C101.139 21.0933 101.443 21.2847 101.704 21.546C101.965 21.798 102.171 22.12 102.32 22.512C102.469 22.8947 102.544 23.3473 102.544 23.87L97.6159 23.954C97.6159 24.6633 97.6906 25.2887 97.8399 25.83C97.9986 26.362 98.2506 26.7773 98.5959 27.076C98.9413 27.3653 99.3846 27.51 99.9259 27.51C100.215 27.51 100.509 27.4587 100.808 27.356C101.116 27.2533 101.401 27.1133 101.662 26.936C101.923 26.7587 102.133 26.5627 102.292 26.348L102.628 26.628C102.376 27.02 102.073 27.3327 101.718 27.566C101.363 27.7993 100.999 27.9673 100.626 28.07C100.253 28.1727 99.9073 28.224 99.5899 28.224ZM97.6579 23.366H101.228C101.228 23.03 101.177 22.708 101.074 22.4C100.981 22.0827 100.822 21.826 100.598 21.63C100.374 21.4247 100.08 21.322 99.7159 21.322C99.1746 21.322 98.7219 21.4853 98.3579 21.812C98.0033 22.1293 97.7699 22.6473 97.6579 23.366Z" fill="#768088"/>
</svg>
