<svg width="139" height="46" viewBox="0 0 139 46" fill="none" xmlns="http://www.w3.org/2000/svg">
<path d="M36.3159 28V27.538C36.6706 27.5193 36.9132 27.44 37.0439 27.3C37.1746 27.1507 37.2446 26.95 37.2539 26.698C37.2726 26.4367 37.2819 26.1427 37.2819 25.816V19.768C37.2819 19.5813 37.2866 19.404 37.2959 19.236C37.3052 19.0587 37.3146 18.9 37.3239 18.76C37.1559 18.7693 36.9879 18.7787 36.8199 18.788C36.6519 18.7973 36.4839 18.8067 36.3159 18.816V18.2C36.8386 18.1907 37.3659 18.1813 37.8979 18.172C38.4392 18.1627 38.9806 18.1673 39.5219 18.186C40.4272 18.1953 41.1552 18.3027 41.7059 18.508C42.2659 18.704 42.6766 18.9887 42.9379 19.362C43.1992 19.726 43.3299 20.1693 43.3299 20.692C43.3392 21.056 43.2692 21.4293 43.1199 21.812C42.9799 22.1853 42.7186 22.5213 42.3359 22.82C41.9626 23.1187 41.4212 23.3427 40.7119 23.492C40.8986 23.6227 41.0619 23.7907 41.2019 23.996C41.3419 24.2013 41.5006 24.4393 41.6779 24.71L42.6299 26.208C42.7886 26.46 42.9426 26.6887 43.0919 26.894C43.2412 27.09 43.4139 27.2487 43.6099 27.37C43.8059 27.482 44.0486 27.538 44.3379 27.538V28H42.5739C42.3032 27.7573 42.0746 27.5147 41.8879 27.272C41.7106 27.0293 41.5239 26.754 41.3279 26.446L40.3899 24.948C40.2686 24.752 40.1286 24.528 39.9699 24.276C39.8206 24.0147 39.6479 23.7953 39.4519 23.618C39.3026 23.6273 39.1439 23.632 38.9759 23.632C38.8172 23.632 38.6586 23.6273 38.4999 23.618V26.334C38.4999 26.586 38.4952 26.8053 38.4859 26.992C38.4859 27.1693 38.4766 27.3187 38.4579 27.44C38.5699 27.4307 38.6819 27.426 38.7939 27.426C38.9059 27.4167 39.0179 27.4073 39.1299 27.398C39.2419 27.3887 39.3539 27.384 39.4659 27.384V28H36.3159ZM39.3679 23.1C39.8812 23.0813 40.3292 22.9973 40.7119 22.848C41.1039 22.6987 41.4119 22.4607 41.6359 22.134C41.8599 21.8073 41.9719 21.378 41.9719 20.846C41.9719 20.4913 41.9206 20.1833 41.8179 19.922C41.7246 19.6513 41.5752 19.4273 41.3699 19.25C41.1646 19.0727 40.9032 18.942 40.5859 18.858C40.2686 18.7647 39.8952 18.718 39.4659 18.718C39.1206 18.718 38.8779 18.788 38.7379 18.928C38.6072 19.068 38.5326 19.264 38.5139 19.516C38.5046 19.7587 38.4999 20.048 38.4999 20.384V23.072C38.6492 23.0813 38.7892 23.0907 38.9199 23.1C39.0599 23.1093 39.2092 23.1093 39.3679 23.1ZM48.2452 28.224C47.6012 28.224 47.0179 28.0747 46.4952 27.776C45.9819 27.468 45.5759 27.0387 45.2772 26.488C44.9785 25.928 44.8292 25.27 44.8292 24.514C44.8292 23.8607 44.9739 23.2493 45.2632 22.68C45.5619 22.1107 45.9772 21.6533 46.5092 21.308C47.0412 20.9533 47.6572 20.776 48.3572 20.776C48.7492 20.776 49.1132 20.8413 49.4492 20.972C49.7945 21.0933 50.0979 21.2847 50.3592 21.546C50.6205 21.798 50.8259 22.12 50.9752 22.512C51.1245 22.8947 51.1992 23.3473 51.1992 23.87L46.2712 23.954C46.2712 24.6633 46.3459 25.2887 46.4952 25.83C46.6539 26.362 46.9059 26.7773 47.2512 27.076C47.5965 27.3653 48.0399 27.51 48.5812 27.51C48.8705 27.51 49.1645 27.4587 49.4632 27.356C49.7712 27.2533 50.0559 27.1133 50.3172 26.936C50.5785 26.7587 50.7885 26.5627 50.9472 26.348L51.2832 26.628C51.0312 27.02 50.7279 27.3327 50.3732 27.566C50.0185 27.7993 49.6545 27.9673 49.2812 28.07C48.9079 28.1727 48.5625 28.224 48.2452 28.224ZM46.3132 23.366H49.8832C49.8832 23.03 49.8319 22.708 49.7292 22.4C49.6359 22.0827 49.4772 21.826 49.2532 21.63C49.0292 21.4247 48.7352 21.322 48.3712 21.322C47.8299 21.322 47.3772 21.4853 47.0132 21.812C46.6585 22.1293 46.4252 22.6473 46.3132 23.366ZM52.3051 27.58C52.5944 27.58 52.7951 27.51 52.9071 27.37C53.0191 27.2207 53.0844 27.02 53.1031 26.768C53.1218 26.5067 53.1311 26.208 53.1311 25.872V19.25C53.1311 19.1007 53.1311 18.9607 53.1311 18.83C53.1404 18.69 53.1544 18.5267 53.1731 18.34C53.0051 18.3493 52.8371 18.3587 52.6691 18.368C52.5104 18.3773 52.3471 18.3867 52.1791 18.396V17.808C52.5898 17.808 52.9071 17.7893 53.1311 17.752C53.3644 17.7147 53.5371 17.668 53.6491 17.612C53.7704 17.556 53.8638 17.4953 53.9291 17.43H54.3351L54.3491 26.516C54.3491 26.7027 54.3444 26.8707 54.3351 27.02C54.3258 27.16 54.3071 27.3093 54.2791 27.468C54.4284 27.4587 54.5731 27.454 54.7131 27.454C54.8624 27.4447 55.0118 27.4353 55.1611 27.426V28H52.3051V27.58ZM60.5156 28C60.4876 27.8413 60.4689 27.7013 60.4596 27.58C60.4502 27.4587 60.4362 27.3327 60.4176 27.202C60.1002 27.5193 59.7549 27.7713 59.3816 27.958C59.0176 28.1353 58.6302 28.224 58.2196 28.224C57.5102 28.224 56.9829 28.0653 56.6376 27.748C56.2922 27.4213 56.1196 27.0247 56.1196 26.558C56.1196 26.1287 56.2502 25.76 56.5116 25.452C56.7822 25.1347 57.1276 24.878 57.5476 24.682C57.9769 24.4767 58.4389 24.3273 58.9336 24.234C59.4376 24.1313 59.9229 24.0847 60.3896 24.094V23.226C60.3896 22.8993 60.3616 22.5913 60.3056 22.302C60.2496 22.0127 60.1282 21.7747 59.9416 21.588C59.7549 21.4013 59.4562 21.3033 59.0456 21.294C58.7749 21.2847 58.4949 21.336 58.2056 21.448C57.9256 21.56 57.7202 21.7513 57.5896 22.022C57.6642 22.0967 57.7109 22.1853 57.7296 22.288C57.7576 22.3813 57.7716 22.47 57.7716 22.554C57.7716 22.666 57.7249 22.7967 57.6316 22.946C57.5382 23.086 57.3749 23.1513 57.1416 23.142C56.9456 23.142 56.7962 23.0767 56.6936 22.946C56.5909 22.806 56.5396 22.6427 56.5396 22.456C56.5396 22.1387 56.6562 21.854 56.8896 21.602C57.1322 21.35 57.4636 21.1493 57.8836 21C58.3036 20.8507 58.7796 20.776 59.3116 20.776C60.0956 20.776 60.6742 20.986 61.0476 21.406C61.4209 21.8167 61.6029 22.47 61.5936 23.366C61.5936 23.7113 61.5936 24.0613 61.5936 24.416C61.5936 24.7613 61.5889 25.1113 61.5796 25.466C61.5796 25.8113 61.5796 26.1613 61.5796 26.516C61.5796 26.6653 61.5749 26.8147 61.5656 26.964C61.5562 27.1133 61.5422 27.2813 61.5236 27.468C61.6916 27.4587 61.8549 27.4493 62.0136 27.44C62.1816 27.4307 62.3496 27.4213 62.5176 27.412V28H60.5156ZM60.3896 24.57C60.0722 24.5793 59.7362 24.6213 59.3816 24.696C59.0362 24.7613 58.7142 24.864 58.4156 25.004C58.1262 25.144 57.8882 25.3307 57.7016 25.564C57.5242 25.788 57.4402 26.0633 57.4496 26.39C57.4682 26.7353 57.5802 26.9967 57.7856 27.174C58.0002 27.342 58.2522 27.426 58.5416 27.426C58.9242 27.426 59.2556 27.356 59.5356 27.216C59.8249 27.0667 60.1096 26.8613 60.3896 26.6C60.3802 26.4973 60.3756 26.3853 60.3756 26.264C60.3756 26.1427 60.3756 26.0167 60.3756 25.886C60.3756 25.8393 60.3756 25.69 60.3756 25.438C60.3849 25.186 60.3896 24.8967 60.3896 24.57ZM63.1983 28V27.58C63.4876 27.5053 63.7163 27.384 63.8843 27.216C64.0523 27.0387 64.267 26.782 64.5283 26.446L65.9283 24.626C65.7976 24.4487 65.639 24.2387 65.4523 23.996C65.2656 23.744 65.0883 23.506 64.9203 23.282C64.7616 23.0487 64.6356 22.876 64.5423 22.764C64.3183 22.4653 64.155 22.218 64.0523 22.022C63.9496 21.826 63.875 21.6673 63.8283 21.546L63.1703 21.574V21H66.0543V21.42C65.6343 21.4293 65.3963 21.5273 65.3403 21.714C65.2936 21.8913 65.443 22.218 65.7883 22.694L66.6003 23.8L67.8743 22.26C68.0143 22.092 68.131 21.952 68.2243 21.84C68.3176 21.7187 68.411 21.6113 68.5043 21.518L67.5383 21.574V21H69.8343V21.42C69.5823 21.4947 69.3676 21.5927 69.1903 21.714C69.013 21.826 68.8356 21.98 68.6583 22.176C68.4903 22.3627 68.2803 22.61 68.0283 22.918L66.9503 24.206L68.8823 26.6C68.985 26.74 69.0876 26.8753 69.1903 27.006C69.293 27.1367 69.3956 27.2907 69.4983 27.468L70.1283 27.426V28H67.4263V27.58C67.6503 27.58 67.809 27.5287 67.9023 27.426C68.005 27.314 67.9583 27.1367 67.7623 26.894L66.2923 25.074L65.1163 26.684C64.9763 26.8707 64.869 27.0107 64.7943 27.104C64.7196 27.1973 64.6123 27.3187 64.4723 27.468L65.5503 27.426V28H63.1983ZM75.1581 28C75.1301 27.8413 75.1115 27.7013 75.1021 27.58C75.0928 27.4587 75.0788 27.3327 75.0601 27.202C74.7428 27.5193 74.3975 27.7713 74.0241 27.958C73.6601 28.1353 73.2728 28.224 72.8621 28.224C72.1528 28.224 71.6255 28.0653 71.2801 27.748C70.9348 27.4213 70.7621 27.0247 70.7621 26.558C70.7621 26.1287 70.8928 25.76 71.1541 25.452C71.4248 25.1347 71.7701 24.878 72.1901 24.682C72.6195 24.4767 73.0815 24.3273 73.5761 24.234C74.0801 24.1313 74.5655 24.0847 75.0321 24.094V23.226C75.0321 22.8993 75.0041 22.5913 74.9481 22.302C74.8921 22.0127 74.7708 21.7747 74.5841 21.588C74.3975 21.4013 74.0988 21.3033 73.6881 21.294C73.4175 21.2847 73.1375 21.336 72.8481 21.448C72.5681 21.56 72.3628 21.7513 72.2321 22.022C72.3068 22.0967 72.3535 22.1853 72.3721 22.288C72.4001 22.3813 72.4141 22.47 72.4141 22.554C72.4141 22.666 72.3675 22.7967 72.2741 22.946C72.1808 23.086 72.0175 23.1513 71.7841 23.142C71.5881 23.142 71.4388 23.0767 71.3361 22.946C71.2335 22.806 71.1821 22.6427 71.1821 22.456C71.1821 22.1387 71.2988 21.854 71.5321 21.602C71.7748 21.35 72.1061 21.1493 72.5261 21C72.9461 20.8507 73.4221 20.776 73.9541 20.776C74.7381 20.776 75.3168 20.986 75.6901 21.406C76.0635 21.8167 76.2455 22.47 76.2361 23.366C76.2361 23.7113 76.2361 24.0613 76.2361 24.416C76.2361 24.7613 76.2315 25.1113 76.2221 25.466C76.2221 25.8113 76.2221 26.1613 76.2221 26.516C76.2221 26.6653 76.2175 26.8147 76.2081 26.964C76.1988 27.1133 76.1848 27.2813 76.1661 27.468C76.3341 27.4587 76.4975 27.4493 76.6561 27.44C76.8241 27.4307 76.9921 27.4213 77.1601 27.412V28H75.1581ZM75.0321 24.57C74.7148 24.5793 74.3788 24.6213 74.0241 24.696C73.6788 24.7613 73.3568 24.864 73.0581 25.004C72.7688 25.144 72.5308 25.3307 72.3441 25.564C72.1668 25.788 72.0828 26.0633 72.0921 26.39C72.1108 26.7353 72.2228 26.9967 72.4281 27.174C72.6428 27.342 72.8948 27.426 73.1841 27.426C73.5668 27.426 73.8981 27.356 74.1781 27.216C74.4675 27.0667 74.7521 26.8613 75.0321 26.6C75.0228 26.4973 75.0181 26.3853 75.0181 26.264C75.0181 26.1427 75.0181 26.0167 75.0181 25.886C75.0181 25.8393 75.0181 25.69 75.0181 25.438C75.0275 25.186 75.0321 24.8967 75.0321 24.57ZM80.6572 28.224C80.4425 28.224 80.2232 28.1913 79.9992 28.126C79.7752 28.07 79.5652 27.9533 79.3692 27.776C79.1825 27.5987 79.0332 27.342 78.9212 27.006C78.8092 26.6607 78.7532 26.208 78.7532 25.648L78.7812 21.588L77.7032 21.602V21C77.9458 20.9907 78.1932 20.902 78.4452 20.734C78.6972 20.5567 78.9212 20.3187 79.1172 20.02C79.3225 19.7213 79.4625 19.3947 79.5372 19.04H80.0132V21H82.3652V21.546L80.0132 21.574L79.9852 25.466C79.9852 25.886 80.0178 26.2453 80.0832 26.544C80.1578 26.8333 80.2745 27.0527 80.4332 27.202C80.5918 27.3513 80.7972 27.426 81.0492 27.426C81.3105 27.426 81.5532 27.3513 81.7772 27.202C82.0105 27.0527 82.2158 26.8473 82.3932 26.586L82.7712 26.894C82.5658 27.202 82.3605 27.4447 82.1552 27.622C81.9592 27.7993 81.7678 27.93 81.5812 28.014C81.3945 28.1073 81.2218 28.1633 81.0632 28.182C80.9045 28.21 80.7692 28.224 80.6572 28.224ZM83.4392 27.58C83.7286 27.58 83.9292 27.51 84.0412 27.37C84.1532 27.2207 84.2186 27.02 84.2372 26.768C84.2559 26.5067 84.2652 26.208 84.2652 25.872V22.68C84.2652 22.5307 84.2699 22.3907 84.2792 22.26C84.2886 22.12 84.3026 21.9567 84.3212 21.77C84.1532 21.7793 83.9852 21.7887 83.8172 21.798C83.6586 21.8073 83.4952 21.8167 83.3272 21.826V21.238C83.7379 21.238 84.0552 21.2193 84.2792 21.182C84.5032 21.1447 84.6712 21.098 84.7832 21.042C84.9046 20.986 84.9979 20.9253 85.0632 20.86H85.4692V26.516C85.4692 26.7027 85.4646 26.8707 85.4552 27.02C85.4552 27.16 85.4412 27.3093 85.4132 27.468C85.5626 27.4587 85.7072 27.454 85.8472 27.454C85.9966 27.4447 86.1459 27.4353 86.2952 27.426V28H83.4392V27.58ZM84.7972 19.474C84.6012 19.474 84.4286 19.3947 84.2792 19.236C84.1299 19.0773 84.0552 18.8813 84.0552 18.648C84.0552 18.4147 84.1299 18.2187 84.2792 18.06C84.4379 17.892 84.6152 17.808 84.8112 17.808C85.0259 17.808 85.2032 17.892 85.3432 18.06C85.4926 18.2187 85.5672 18.4147 85.5672 18.648C85.5672 18.8813 85.4879 19.0773 85.3292 19.236C85.1799 19.3947 85.0026 19.474 84.7972 19.474ZM90.8487 28.224C90.1954 28.224 89.6027 28.0747 89.0707 27.776C88.5387 27.468 88.1141 27.048 87.7967 26.516C87.4887 25.9747 87.3347 25.3587 87.3347 24.668C87.3347 23.9307 87.4887 23.268 87.7967 22.68C88.1047 22.092 88.5247 21.63 89.0567 21.294C89.5887 20.9487 90.1861 20.776 90.8487 20.776C91.5021 20.776 92.0947 20.9347 92.6267 21.252C93.1587 21.56 93.5834 21.98 93.9007 22.512C94.2181 23.044 94.3767 23.6507 94.3767 24.332C94.3767 25.0507 94.2181 25.7087 93.9007 26.306C93.5927 26.894 93.1727 27.3607 92.6407 27.706C92.1087 28.0513 91.5114 28.224 90.8487 28.224ZM90.9607 27.664C91.4554 27.664 91.8474 27.524 92.1367 27.244C92.4261 26.964 92.6314 26.6 92.7527 26.152C92.8834 25.704 92.9487 25.2327 92.9487 24.738C92.9487 24.318 92.9067 23.9073 92.8227 23.506C92.7481 23.0953 92.6267 22.7267 92.4587 22.4C92.2907 22.064 92.0714 21.798 91.8007 21.602C91.5394 21.406 91.2221 21.308 90.8487 21.308C90.3634 21.308 89.9667 21.448 89.6587 21.728C89.3507 22.008 89.1221 22.372 88.9727 22.82C88.8327 23.268 88.7627 23.7487 88.7627 24.262C88.7627 24.8407 88.8421 25.3913 89.0007 25.914C89.1594 26.4273 89.4021 26.8473 89.7287 27.174C90.0554 27.5007 90.4661 27.664 90.9607 27.664ZM95.5662 28V27.58C95.8555 27.58 96.0562 27.51 96.1682 27.37C96.2802 27.2207 96.3455 27.02 96.3642 26.768C96.3829 26.5067 96.3922 26.208 96.3922 25.872L96.4062 22.68C96.4062 22.5307 96.4062 22.3813 96.4062 22.232C96.4155 22.0827 96.4342 21.9287 96.4622 21.77C96.2942 21.7793 96.1262 21.7887 95.9582 21.798C95.7995 21.8073 95.6362 21.8167 95.4682 21.826V21.238C95.8789 21.238 96.1869 21.2193 96.3922 21.182C96.6069 21.1447 96.7655 21.098 96.8682 21.042C96.9709 20.986 97.0549 20.9253 97.1202 20.86H97.5262C97.5355 20.9253 97.5402 21 97.5402 21.084C97.5495 21.168 97.5589 21.2613 97.5682 21.364C97.5775 21.4667 97.5822 21.5833 97.5822 21.714C97.7875 21.5367 98.0115 21.378 98.2542 21.238C98.5062 21.098 98.7675 20.986 99.0382 20.902C99.3182 20.818 99.5935 20.776 99.8642 20.776C100.676 20.776 101.269 21.0327 101.642 21.546C102.016 22.05 102.202 22.8387 102.202 23.912V26.516C102.202 26.7027 102.198 26.8707 102.188 27.02C102.188 27.16 102.174 27.3093 102.146 27.468C102.296 27.4587 102.44 27.454 102.58 27.454C102.73 27.4447 102.879 27.4353 103.028 27.426V28H100.172V27.58C100.462 27.58 100.662 27.51 100.774 27.37C100.886 27.2207 100.952 27.02 100.97 26.768C100.989 26.5067 100.998 26.208 100.998 25.872V23.912C100.989 23.1093 100.854 22.5027 100.592 22.092C100.34 21.6813 99.9389 21.4807 99.3882 21.49C99.0522 21.4993 98.7209 21.588 98.3942 21.756C98.0769 21.924 97.8109 22.1387 97.5962 22.4C97.6055 22.4747 97.6102 22.5587 97.6102 22.652C97.6102 22.7453 97.6102 22.8433 97.6102 22.946L97.5962 26.516C97.5962 26.7027 97.5915 26.8707 97.5822 27.02C97.5822 27.16 97.5682 27.3093 97.5402 27.468C97.6895 27.4587 97.8342 27.454 97.9742 27.454C98.1235 27.4447 98.2729 27.4353 98.4222 27.426V28H95.5662Z" fill="#768088"/>
</svg>
