<svg width="139" height="46" viewBox="0 0 139 46" fill="none" xmlns="http://www.w3.org/2000/svg">
<path d="M55.4104 28.224L49.8244 20.72C49.7404 20.608 49.6564 20.5007 49.5724 20.398C49.4978 20.286 49.4184 20.174 49.3344 20.062H49.3204L49.3624 26.054C49.3624 26.2873 49.3624 26.5207 49.3624 26.754C49.3624 26.9873 49.3531 27.216 49.3344 27.44C49.5024 27.4307 49.6704 27.4213 49.8384 27.412C50.0064 27.4027 50.1744 27.3933 50.3424 27.384V28H47.7804V27.538C48.0698 27.538 48.2751 27.4773 48.3964 27.356C48.5271 27.2253 48.6111 27.076 48.6484 26.908C48.6858 26.7307 48.7044 26.572 48.7044 26.432L48.7184 19.698C48.7184 19.5393 48.7184 19.3807 48.7184 19.222C48.7184 19.0633 48.7184 18.9093 48.7184 18.76C48.5691 18.7693 48.4151 18.7787 48.2564 18.788C48.0978 18.7973 47.9391 18.8067 47.7804 18.816V18.2H49.4464L54.6964 25.228C54.8178 25.3867 54.9344 25.5453 55.0464 25.704C55.1678 25.8627 55.2891 26.0213 55.4104 26.18H55.4244L55.4384 19.768C55.4384 19.5813 55.4431 19.404 55.4524 19.236C55.4618 19.0587 55.4711 18.9 55.4804 18.76C55.3124 18.7693 55.1444 18.7787 54.9764 18.788C54.8084 18.7973 54.6404 18.8067 54.4724 18.816V18.2H57.0484V18.662C56.7031 18.6713 56.4651 18.7507 56.3344 18.9C56.2038 19.0493 56.1338 19.25 56.1244 19.502C56.1151 19.754 56.1104 20.048 56.1104 20.384L56.0824 28.224H55.4104ZM62.4501 28C62.4221 27.8413 62.4035 27.7013 62.3941 27.58C62.3848 27.4587 62.3708 27.3327 62.3521 27.202C62.0348 27.5193 61.6895 27.7713 61.3161 27.958C60.9521 28.1353 60.5648 28.224 60.1541 28.224C59.4448 28.224 58.9175 28.0653 58.5721 27.748C58.2268 27.4213 58.0541 27.0247 58.0541 26.558C58.0541 26.1287 58.1848 25.76 58.4461 25.452C58.7168 25.1347 59.0621 24.878 59.4821 24.682C59.9115 24.4767 60.3735 24.3273 60.8681 24.234C61.3721 24.1313 61.8575 24.0847 62.3241 24.094V23.226C62.3241 22.8993 62.2961 22.5913 62.2401 22.302C62.1841 22.0127 62.0628 21.7747 61.8761 21.588C61.6895 21.4013 61.3908 21.3033 60.9801 21.294C60.7095 21.2847 60.4295 21.336 60.1401 21.448C59.8601 21.56 59.6548 21.7513 59.5241 22.022C59.5988 22.0967 59.6455 22.1853 59.6641 22.288C59.6921 22.3813 59.7061 22.47 59.7061 22.554C59.7061 22.666 59.6595 22.7967 59.5661 22.946C59.4728 23.086 59.3095 23.1513 59.0761 23.142C58.8801 23.142 58.7308 23.0767 58.6281 22.946C58.5255 22.806 58.4741 22.6427 58.4741 22.456C58.4741 22.1387 58.5908 21.854 58.8241 21.602C59.0668 21.35 59.3981 21.1493 59.8181 21C60.2381 20.8507 60.7141 20.776 61.2461 20.776C62.0301 20.776 62.6088 20.986 62.9821 21.406C63.3555 21.8167 63.5375 22.47 63.5281 23.366C63.5281 23.7113 63.5281 24.0613 63.5281 24.416C63.5281 24.7613 63.5235 25.1113 63.5141 25.466C63.5141 25.8113 63.5141 26.1613 63.5141 26.516C63.5141 26.6653 63.5095 26.8147 63.5001 26.964C63.4908 27.1133 63.4768 27.2813 63.4581 27.468C63.6261 27.4587 63.7895 27.4493 63.9481 27.44C64.1161 27.4307 64.2841 27.4213 64.4521 27.412V28H62.4501ZM62.3241 24.57C62.0068 24.5793 61.6708 24.6213 61.3161 24.696C60.9708 24.7613 60.6488 24.864 60.3501 25.004C60.0608 25.144 59.8228 25.3307 59.6361 25.564C59.4588 25.788 59.3748 26.0633 59.3841 26.39C59.4028 26.7353 59.5148 26.9967 59.7201 27.174C59.9348 27.342 60.1868 27.426 60.4761 27.426C60.8588 27.426 61.1901 27.356 61.4701 27.216C61.7595 27.0667 62.0441 26.8613 62.3241 26.6C62.3148 26.4973 62.3101 26.3853 62.3101 26.264C62.3101 26.1427 62.3101 26.0167 62.3101 25.886C62.3101 25.8393 62.3101 25.69 62.3101 25.438C62.3195 25.186 62.3241 24.8967 62.3241 24.57ZM67.9492 28.224C67.7345 28.224 67.5152 28.1913 67.2912 28.126C67.0672 28.07 66.8572 27.9533 66.6612 27.776C66.4745 27.5987 66.3252 27.342 66.2132 27.006C66.1012 26.6607 66.0452 26.208 66.0452 25.648L66.0732 21.588L64.9952 21.602V21C65.2378 20.9907 65.4852 20.902 65.7372 20.734C65.9892 20.5567 66.2132 20.3187 66.4092 20.02C66.6145 19.7213 66.7545 19.3947 66.8292 19.04H67.3052V21H69.6572V21.546L67.3052 21.574L67.2772 25.466C67.2772 25.886 67.3098 26.2453 67.3752 26.544C67.4498 26.8333 67.5665 27.0527 67.7252 27.202C67.8838 27.3513 68.0892 27.426 68.3412 27.426C68.6025 27.426 68.8452 27.3513 69.0692 27.202C69.3025 27.0527 69.5078 26.8473 69.6852 26.586L70.0632 26.894C69.8578 27.202 69.6525 27.4447 69.4472 27.622C69.2512 27.7993 69.0598 27.93 68.8732 28.014C68.6865 28.1073 68.5138 28.1633 68.3552 28.182C68.1965 28.21 68.0612 28.224 67.9492 28.224ZM73.6852 28.224C73.1812 28.224 72.7566 28.1307 72.4112 27.944C72.0752 27.7573 71.8186 27.44 71.6412 26.992C71.4732 26.544 71.3892 25.9373 71.3892 25.172V22.68C71.3892 22.5307 71.3892 22.3813 71.3892 22.232C71.3986 22.0827 71.4172 21.9287 71.4452 21.77C71.2866 21.7793 71.1232 21.7887 70.9552 21.798C70.7966 21.798 70.6379 21.8027 70.4792 21.812V21.238H70.9132C71.3146 21.238 71.6039 21.2007 71.7812 21.126C71.9679 21.042 72.1126 20.9533 72.2152 20.86H72.6212V25.13C72.6212 25.9327 72.7332 26.5347 72.9572 26.936C73.1906 27.328 73.5826 27.5193 74.1332 27.51C74.4879 27.5007 74.8239 27.3933 75.1412 27.188C75.4679 26.9733 75.7292 26.7213 75.9252 26.432V22.834C75.9252 22.61 75.9299 22.4187 75.9392 22.26C75.9486 22.092 75.9672 21.9287 75.9952 21.77C75.8272 21.7793 75.6592 21.7887 75.4912 21.798C75.3232 21.798 75.1552 21.8027 74.9872 21.812V21.238H75.4212C75.8226 21.238 76.1119 21.2007 76.2892 21.126C76.4759 21.042 76.6206 20.9533 76.7232 20.86H77.1292L77.1152 26.152C77.1152 26.3013 77.1106 26.5113 77.1012 26.782C77.0919 27.0527 77.0779 27.2813 77.0592 27.468C77.2272 27.4587 77.3952 27.4493 77.5632 27.44C77.7312 27.4307 77.8992 27.4213 78.0672 27.412V28H76.0652C76.0372 27.8413 76.0139 27.692 75.9952 27.552C75.9859 27.412 75.9766 27.2813 75.9672 27.16C75.6779 27.4493 75.3279 27.7013 74.9172 27.916C74.5066 28.1213 74.0959 28.224 73.6852 28.224ZM79.0848 27.58C79.3741 27.58 79.5748 27.51 79.6868 27.37C79.7988 27.2207 79.8641 27.02 79.8828 26.768C79.9014 26.5067 79.9108 26.208 79.9108 25.872V22.68C79.9108 22.5307 79.9108 22.3813 79.9108 22.232C79.9201 22.0827 79.9388 21.9287 79.9668 21.77C79.7988 21.7793 79.6308 21.7887 79.4628 21.798C79.3041 21.798 79.1408 21.8027 78.9728 21.812V21.238H79.4068C79.8081 21.238 80.0834 21.2007 80.2328 21.126C80.3914 21.042 80.5221 20.9533 80.6248 20.86H81.0308C81.0494 21.0093 81.0634 21.196 81.0728 21.42C81.0821 21.6347 81.0914 21.91 81.1008 22.246C81.2408 22.0127 81.4321 21.784 81.6748 21.56C81.9174 21.336 82.1881 21.1493 82.4868 21C82.7948 20.8507 83.1168 20.776 83.4528 20.776C83.7141 20.776 83.9428 20.846 84.1388 20.986C84.3348 21.126 84.4328 21.35 84.4328 21.658C84.4328 21.7327 84.4094 21.826 84.3628 21.938C84.3161 22.0407 84.2414 22.134 84.1388 22.218C84.0361 22.2927 83.9008 22.33 83.7328 22.33C83.5274 22.3207 83.3641 22.2413 83.2428 22.092C83.1214 21.9333 83.0748 21.7513 83.1028 21.546C82.8694 21.5367 82.6268 21.5973 82.3748 21.728C82.1321 21.8587 81.9034 22.0407 81.6888 22.274C81.4741 22.498 81.2828 22.764 81.1148 23.072L81.1288 26.516C81.1288 26.7027 81.1241 26.8707 81.1148 27.02C81.1148 27.16 81.1008 27.3093 81.0728 27.468C81.2221 27.4587 81.3668 27.454 81.5068 27.454C81.6561 27.4447 81.8054 27.4353 81.9548 27.426V28H79.0848V27.58ZM88.4337 28.224C87.7897 28.224 87.2064 28.0747 86.6837 27.776C86.1704 27.468 85.7644 27.0387 85.4657 26.488C85.167 25.928 85.0177 25.27 85.0177 24.514C85.0177 23.8607 85.1624 23.2493 85.4517 22.68C85.7504 22.1107 86.1657 21.6533 86.6977 21.308C87.2297 20.9533 87.8457 20.776 88.5457 20.776C88.9377 20.776 89.3017 20.8413 89.6377 20.972C89.983 21.0933 90.2864 21.2847 90.5477 21.546C90.809 21.798 91.0144 22.12 91.1637 22.512C91.313 22.8947 91.3877 23.3473 91.3877 23.87L86.4597 23.954C86.4597 24.6633 86.5344 25.2887 86.6837 25.83C86.8424 26.362 87.0944 26.7773 87.4397 27.076C87.785 27.3653 88.2284 27.51 88.7697 27.51C89.059 27.51 89.353 27.4587 89.6517 27.356C89.9597 27.2533 90.2444 27.1133 90.5057 26.936C90.767 26.7587 90.977 26.5627 91.1357 26.348L91.4717 26.628C91.2197 27.02 90.9164 27.3327 90.5617 27.566C90.207 27.7993 89.843 27.9673 89.4697 28.07C89.0964 28.1727 88.751 28.224 88.4337 28.224ZM86.5017 23.366H90.0717C90.0717 23.03 90.0204 22.708 89.9177 22.4C89.8244 22.0827 89.6657 21.826 89.4417 21.63C89.2177 21.4247 88.9237 21.322 88.5597 21.322C88.0184 21.322 87.5657 21.4853 87.2017 21.812C86.847 22.1293 86.6137 22.6473 86.5017 23.366Z" fill="#768088"/>
</svg>
