<svg width="139" height="46" viewBox="0 0 139 46" fill="none" xmlns="http://www.w3.org/2000/svg">
<path d="M28.0024 27.538C28.3571 27.5193 28.5998 27.44 28.7304 27.3C28.8611 27.1507 28.9311 26.95 28.9404 26.698C28.9591 26.4367 28.9684 26.1427 28.9684 25.816V19.768C28.9684 19.5813 28.9731 19.404 28.9824 19.236C28.9918 19.0587 29.0011 18.9 29.0104 18.76C28.8424 18.7693 28.6744 18.7787 28.5064 18.788C28.3384 18.7973 28.1704 18.8067 28.0024 18.816V18.2C28.4971 18.1907 29.0058 18.186 29.5284 18.186C30.0511 18.1767 30.5831 18.172 31.1244 18.172C32.0298 18.172 32.7904 18.2747 33.4064 18.48C34.0224 18.6853 34.4938 18.9887 34.8204 19.39C35.1471 19.7913 35.3244 20.2907 35.3524 20.888C35.3711 21.252 35.3151 21.6347 35.1844 22.036C35.0631 22.428 34.8298 22.8013 34.4844 23.156C34.1484 23.5013 33.6724 23.7813 33.0564 23.996C32.4404 24.2107 31.6518 24.318 30.6904 24.318C30.6531 24.318 30.5831 24.318 30.4804 24.318C30.3778 24.318 30.2798 24.3133 30.1864 24.304V26.334C30.1864 26.586 30.1818 26.8053 30.1724 26.992C30.1724 27.1693 30.1631 27.3187 30.1444 27.44C30.2938 27.4307 30.4384 27.4213 30.5784 27.412C30.7184 27.4027 30.8584 27.398 30.9984 27.398C31.1478 27.3887 31.2924 27.3793 31.4324 27.37V28H28.0024V27.538ZM30.1864 23.73C30.3638 23.7487 30.5131 23.7627 30.6344 23.772C30.7651 23.772 30.9191 23.772 31.0964 23.772C31.6284 23.772 32.1138 23.6693 32.5524 23.464C32.9911 23.2493 33.3411 22.946 33.6024 22.554C33.8638 22.162 33.9944 21.6953 33.9944 21.154C33.9944 20.7153 33.9244 20.342 33.7844 20.034C33.6444 19.7167 33.4438 19.4647 33.1824 19.278C32.9304 19.082 32.6271 18.942 32.2724 18.858C31.9178 18.7647 31.5258 18.718 31.0964 18.718C30.7698 18.718 30.5411 18.788 30.4104 18.928C30.2891 19.068 30.2191 19.264 30.2004 19.516C30.1911 19.7587 30.1864 20.048 30.1864 20.384V23.73ZM40.7506 27.58C41.04 27.58 41.2406 27.51 41.3526 27.37C41.4646 27.2207 41.53 27.02 41.5486 26.768C41.5673 26.5067 41.5766 26.208 41.5766 25.872V23.912C41.5766 23.1093 41.446 22.5073 41.1846 22.106C40.9326 21.7047 40.5313 21.5087 39.9806 21.518C39.6353 21.5273 39.2946 21.6113 38.9586 21.77C38.632 21.9287 38.366 22.134 38.1606 22.386V26.516C38.1606 26.7027 38.156 26.8707 38.1466 27.02C38.1373 27.16 38.1186 27.3093 38.0906 27.468C38.24 27.4587 38.3846 27.454 38.5246 27.454C38.674 27.4447 38.8233 27.4353 38.9726 27.426V28H36.1166V27.58C36.406 27.58 36.6066 27.51 36.7186 27.37C36.8306 27.2207 36.896 27.02 36.9146 26.768C36.9426 26.5067 36.9566 26.208 36.9566 25.872V19.25C36.9566 19.1007 36.9566 18.9607 36.9566 18.83C36.966 18.69 36.98 18.5267 36.9986 18.34C36.8306 18.3493 36.6626 18.3587 36.4946 18.368C36.336 18.3773 36.1726 18.3867 36.0046 18.396V17.808C36.4153 17.808 36.7326 17.7893 36.9566 17.752C37.19 17.7147 37.3626 17.668 37.4746 17.612C37.596 17.556 37.6893 17.4953 37.7546 17.43H38.1606V21.7C38.366 21.5227 38.5946 21.3687 38.8466 21.238C39.108 21.098 39.374 20.986 39.6446 20.902C39.9246 20.818 40.1953 20.776 40.4566 20.776C41.2686 20.776 41.852 21.0327 42.2066 21.546C42.5706 22.05 42.7573 22.8387 42.7666 23.912L42.7806 26.516C42.7806 26.7027 42.776 26.8707 42.7666 27.02C42.7666 27.16 42.7526 27.3093 42.7246 27.468C42.874 27.4587 43.0186 27.454 43.1586 27.454C43.308 27.4447 43.4573 27.4353 43.6066 27.426V28H40.7506V27.58ZM48.1095 28.224C47.4562 28.224 46.8635 28.0747 46.3315 27.776C45.7995 27.468 45.3748 27.048 45.0575 26.516C44.7495 25.9747 44.5955 25.3587 44.5955 24.668C44.5955 23.9307 44.7495 23.268 45.0575 22.68C45.3655 22.092 45.7855 21.63 46.3175 21.294C46.8495 20.9487 47.4468 20.776 48.1095 20.776C48.7628 20.776 49.3555 20.9347 49.8875 21.252C50.4195 21.56 50.8442 21.98 51.1615 22.512C51.4788 23.044 51.6375 23.6507 51.6375 24.332C51.6375 25.0507 51.4788 25.7087 51.1615 26.306C50.8535 26.894 50.4335 27.3607 49.9015 27.706C49.3695 28.0513 48.7722 28.224 48.1095 28.224ZM48.2215 27.664C48.7162 27.664 49.1082 27.524 49.3975 27.244C49.6868 26.964 49.8922 26.6 50.0135 26.152C50.1442 25.704 50.2095 25.2327 50.2095 24.738C50.2095 24.318 50.1675 23.9073 50.0835 23.506C50.0088 23.0953 49.8875 22.7267 49.7195 22.4C49.5515 22.064 49.3322 21.798 49.0615 21.602C48.8002 21.406 48.4828 21.308 48.1095 21.308C47.6242 21.308 47.2275 21.448 46.9195 21.728C46.6115 22.008 46.3828 22.372 46.2335 22.82C46.0935 23.268 46.0235 23.7487 46.0235 24.262C46.0235 24.8407 46.1028 25.3913 46.2615 25.914C46.4202 26.4273 46.6628 26.8473 46.9895 27.174C47.3162 27.5007 47.7268 27.664 48.2215 27.664ZM55.4589 28.224C55.2443 28.224 55.0249 28.1913 54.8009 28.126C54.5769 28.07 54.3669 27.9533 54.1709 27.776C53.9843 27.5987 53.8349 27.342 53.7229 27.006C53.6109 26.6607 53.5549 26.208 53.5549 25.648L53.5829 21.588L52.5049 21.602V21C52.7476 20.9907 52.9949 20.902 53.2469 20.734C53.4989 20.5567 53.7229 20.3187 53.9189 20.02C54.1243 19.7213 54.2643 19.3947 54.3389 19.04H54.8149V21H57.1669V21.546L54.8149 21.574L54.7869 25.466C54.7869 25.886 54.8196 26.2453 54.8849 26.544C54.9596 26.8333 55.0763 27.0527 55.2349 27.202C55.3936 27.3513 55.5989 27.426 55.8509 27.426C56.1123 27.426 56.3549 27.3513 56.5789 27.202C56.8123 27.0527 57.0176 26.8473 57.1949 26.586L57.5729 26.894C57.3676 27.202 57.1623 27.4447 56.9569 27.622C56.7609 27.7993 56.5696 27.93 56.3829 28.014C56.1963 28.1073 56.0236 28.1633 55.8649 28.182C55.7063 28.21 55.5709 28.224 55.4589 28.224ZM61.713 28.224C61.0597 28.224 60.467 28.0747 59.935 27.776C59.403 27.468 58.9783 27.048 58.661 26.516C58.353 25.9747 58.199 25.3587 58.199 24.668C58.199 23.9307 58.353 23.268 58.661 22.68C58.969 22.092 59.389 21.63 59.921 21.294C60.453 20.9487 61.0503 20.776 61.713 20.776C62.3663 20.776 62.959 20.9347 63.491 21.252C64.023 21.56 64.4477 21.98 64.765 22.512C65.0823 23.044 65.241 23.6507 65.241 24.332C65.241 25.0507 65.0823 25.7087 64.765 26.306C64.457 26.894 64.037 27.3607 63.505 27.706C62.973 28.0513 62.3757 28.224 61.713 28.224ZM61.825 27.664C62.3197 27.664 62.7117 27.524 63.001 27.244C63.2903 26.964 63.4957 26.6 63.617 26.152C63.7477 25.704 63.813 25.2327 63.813 24.738C63.813 24.318 63.771 23.9073 63.687 23.506C63.6123 23.0953 63.491 22.7267 63.323 22.4C63.155 22.064 62.9357 21.798 62.665 21.602C62.4037 21.406 62.0863 21.308 61.713 21.308C61.2277 21.308 60.831 21.448 60.523 21.728C60.215 22.008 59.9863 22.372 59.837 22.82C59.697 23.268 59.627 23.7487 59.627 24.262C59.627 24.8407 59.7063 25.3913 59.865 25.914C60.0237 26.4273 60.2663 26.8473 60.593 27.174C60.9197 27.5007 61.3303 27.664 61.825 27.664ZM69.8045 31.794C68.9645 31.794 68.2878 31.7007 67.7745 31.514C67.2611 31.3273 66.8878 31.0893 66.6545 30.8C66.4211 30.5107 66.3045 30.212 66.3045 29.904C66.3045 29.6147 66.3698 29.358 66.5005 29.134C66.6405 28.9193 66.8085 28.7327 67.0045 28.574C67.2098 28.4153 67.4058 28.2987 67.5925 28.224C67.2938 28.1213 67.0558 27.986 66.8785 27.818C66.7105 27.6407 66.6265 27.4073 66.6265 27.118C66.6265 26.7913 66.7571 26.488 67.0185 26.208C67.2798 25.9187 67.6158 25.7413 68.0265 25.676C67.5971 25.4707 67.2518 25.186 66.9905 24.822C66.7385 24.458 66.6125 24.0333 66.6125 23.548C66.6125 22.988 66.7571 22.5027 67.0465 22.092C67.3358 21.672 67.7045 21.35 68.1525 21.126C68.6098 20.8927 69.0811 20.776 69.5665 20.776C69.8745 20.776 70.1825 20.8227 70.4905 20.916C70.7985 21 71.0831 21.126 71.3445 21.294C71.4378 21.0327 71.5685 20.7993 71.7365 20.594C71.9138 20.3887 72.1145 20.23 72.3385 20.118C72.5625 19.9967 72.7958 19.936 73.0385 19.936C73.2811 19.936 73.4631 20.0013 73.5845 20.132C73.7151 20.2533 73.7805 20.4213 73.7805 20.636C73.7805 20.7013 73.7618 20.7807 73.7245 20.874C73.6871 20.9673 73.6218 21.0467 73.5285 21.112C73.4445 21.1773 73.3278 21.21 73.1785 21.21C73.0198 21.21 72.8891 21.1633 72.7865 21.07C72.6838 20.9767 72.6185 20.86 72.5905 20.72C72.3571 20.7573 72.1751 20.8693 72.0445 21.056C71.9138 21.2333 71.8251 21.4293 71.7785 21.644C72.0025 21.8493 72.1798 22.0967 72.3105 22.386C72.4505 22.6753 72.5205 22.9833 72.5205 23.31C72.5205 23.8327 72.3805 24.2993 72.1005 24.71C71.8298 25.1207 71.4705 25.4427 71.0225 25.676C70.5745 25.9 70.0891 26.012 69.5665 26.012C69.3891 26.012 69.2351 26.0027 69.1045 25.984C68.9738 25.956 68.8151 25.942 68.6285 25.942C68.2831 25.942 68.0031 26.026 67.7885 26.194C67.5738 26.362 67.4991 26.5627 67.5645 26.796C67.6391 27.02 67.8678 27.1647 68.2505 27.23C68.6331 27.286 69.1465 27.328 69.7905 27.356C70.5091 27.384 71.1251 27.468 71.6385 27.608C72.1518 27.748 72.5438 27.9627 72.8145 28.252C73.0945 28.5507 73.2345 28.952 73.2345 29.456C73.2345 29.8293 73.1318 30.1607 72.9265 30.45C72.7305 30.7487 72.4645 30.996 72.1285 31.192C71.8018 31.388 71.4331 31.5373 71.0225 31.64C70.6211 31.7427 70.2151 31.794 69.8045 31.794ZM69.7905 31.248C70.5931 31.248 71.2185 31.0987 71.6665 30.8C72.1145 30.5013 72.3385 30.1513 72.3385 29.75C72.3385 29.4047 72.2218 29.1387 71.9885 28.952C71.7551 28.7747 71.4378 28.6487 71.0365 28.574C70.6351 28.5087 70.1731 28.4713 69.6505 28.462C69.3985 28.4527 69.1511 28.4387 68.9085 28.42C68.6658 28.4107 68.4325 28.3873 68.2085 28.35C67.9565 28.518 67.7605 28.7233 67.6205 28.966C67.4805 29.2087 67.4105 29.4653 67.4105 29.736C67.4105 30.1933 67.6251 30.5573 68.0545 30.828C68.4931 31.108 69.0718 31.248 69.7905 31.248ZM69.6085 25.508C69.9538 25.508 70.2385 25.424 70.4625 25.256C70.6958 25.088 70.8685 24.8593 70.9805 24.57C71.1018 24.2807 71.1625 23.954 71.1625 23.59C71.1625 23.1793 71.1018 22.7967 70.9805 22.442C70.8591 22.0873 70.6771 21.8027 70.4345 21.588C70.2011 21.3733 69.9025 21.266 69.5385 21.266C69.0345 21.266 68.6425 21.4573 68.3625 21.84C68.0918 22.2133 67.9565 22.68 67.9565 23.24C67.9565 23.688 68.0218 24.0847 68.1525 24.43C68.2831 24.766 68.4698 25.032 68.7125 25.228C68.9645 25.4147 69.2631 25.508 69.6085 25.508ZM74.1687 27.58C74.4581 27.58 74.6587 27.51 74.7707 27.37C74.8827 27.2207 74.9481 27.02 74.9667 26.768C74.9854 26.5067 74.9947 26.208 74.9947 25.872V22.68C74.9947 22.5307 74.9947 22.3813 74.9947 22.232C75.0041 22.0827 75.0227 21.9287 75.0507 21.77C74.8827 21.7793 74.7147 21.7887 74.5467 21.798C74.3881 21.798 74.2247 21.8027 74.0567 21.812V21.238H74.4907C74.8921 21.238 75.1674 21.2007 75.3167 21.126C75.4754 21.042 75.6061 20.9533 75.7087 20.86H76.1147C76.1334 21.0093 76.1474 21.196 76.1567 21.42C76.1661 21.6347 76.1754 21.91 76.1847 22.246C76.3247 22.0127 76.5161 21.784 76.7587 21.56C77.0014 21.336 77.2721 21.1493 77.5707 21C77.8787 20.8507 78.2007 20.776 78.5367 20.776C78.7981 20.776 79.0267 20.846 79.2227 20.986C79.4187 21.126 79.5167 21.35 79.5167 21.658C79.5167 21.7327 79.4934 21.826 79.4467 21.938C79.4001 22.0407 79.3254 22.134 79.2227 22.218C79.1201 22.2927 78.9847 22.33 78.8167 22.33C78.6114 22.3207 78.4481 22.2413 78.3267 22.092C78.2054 21.9333 78.1587 21.7513 78.1867 21.546C77.9534 21.5367 77.7107 21.5973 77.4587 21.728C77.2161 21.8587 76.9874 22.0407 76.7727 22.274C76.5581 22.498 76.3667 22.764 76.1987 23.072L76.2127 26.516C76.2127 26.7027 76.2081 26.8707 76.1987 27.02C76.1987 27.16 76.1847 27.3093 76.1567 27.468C76.3061 27.4587 76.4507 27.454 76.5907 27.454C76.7401 27.4447 76.8894 27.4353 77.0387 27.426V28H74.1687V27.58ZM84.3857 28C84.3577 27.8413 84.339 27.7013 84.3297 27.58C84.3203 27.4587 84.3063 27.3327 84.2877 27.202C83.9703 27.5193 83.625 27.7713 83.2517 27.958C82.8877 28.1353 82.5003 28.224 82.0897 28.224C81.3803 28.224 80.853 28.0653 80.5077 27.748C80.1623 27.4213 79.9897 27.0247 79.9897 26.558C79.9897 26.1287 80.1203 25.76 80.3817 25.452C80.6523 25.1347 80.9977 24.878 81.4177 24.682C81.847 24.4767 82.309 24.3273 82.8037 24.234C83.3077 24.1313 83.793 24.0847 84.2597 24.094V23.226C84.2597 22.8993 84.2317 22.5913 84.1757 22.302C84.1197 22.0127 83.9983 21.7747 83.8117 21.588C83.625 21.4013 83.3263 21.3033 82.9157 21.294C82.645 21.2847 82.365 21.336 82.0757 21.448C81.7957 21.56 81.5903 21.7513 81.4597 22.022C81.5343 22.0967 81.581 22.1853 81.5997 22.288C81.6277 22.3813 81.6417 22.47 81.6417 22.554C81.6417 22.666 81.595 22.7967 81.5017 22.946C81.4083 23.086 81.245 23.1513 81.0117 23.142C80.8157 23.142 80.6663 23.0767 80.5637 22.946C80.461 22.806 80.4097 22.6427 80.4097 22.456C80.4097 22.1387 80.5263 21.854 80.7597 21.602C81.0023 21.35 81.3337 21.1493 81.7537 21C82.1737 20.8507 82.6497 20.776 83.1817 20.776C83.9657 20.776 84.5443 20.986 84.9177 21.406C85.291 21.8167 85.473 22.47 85.4637 23.366C85.4637 23.7113 85.4637 24.0613 85.4637 24.416C85.4637 24.7613 85.459 25.1113 85.4497 25.466C85.4497 25.8113 85.4497 26.1613 85.4497 26.516C85.4497 26.6653 85.445 26.8147 85.4357 26.964C85.4263 27.1133 85.4123 27.2813 85.3937 27.468C85.5617 27.4587 85.725 27.4493 85.8837 27.44C86.0517 27.4307 86.2197 27.4213 86.3877 27.412V28H84.3857ZM84.2597 24.57C83.9423 24.5793 83.6063 24.6213 83.2517 24.696C82.9063 24.7613 82.5843 24.864 82.2857 25.004C81.9963 25.144 81.7583 25.3307 81.5717 25.564C81.3943 25.788 81.3103 26.0633 81.3197 26.39C81.3383 26.7353 81.4503 26.9967 81.6557 27.174C81.8703 27.342 82.1223 27.426 82.4117 27.426C82.7943 27.426 83.1257 27.356 83.4057 27.216C83.695 27.0667 83.9797 26.8613 84.2597 26.6C84.2503 26.4973 84.2457 26.3853 84.2457 26.264C84.2457 26.1427 84.2457 26.0167 84.2457 25.886C84.2457 25.8393 84.2457 25.69 84.2457 25.438C84.255 25.186 84.2597 24.8967 84.2597 24.57ZM87.2224 31.57V31.15C87.5118 31.15 87.7124 31.0753 87.8244 30.926C87.9364 30.786 88.0018 30.5853 88.0204 30.324C88.0391 30.072 88.0484 29.778 88.0484 29.442L88.0764 22.68C88.0764 22.5307 88.0764 22.3813 88.0764 22.232C88.0858 22.0827 88.1044 21.9287 88.1324 21.77C87.9644 21.7793 87.7964 21.7887 87.6284 21.798C87.4698 21.8073 87.3064 21.8167 87.1384 21.826V21.238C87.5491 21.238 87.8571 21.2193 88.0624 21.182C88.2771 21.1447 88.4311 21.098 88.5244 21.042C88.6271 20.986 88.7111 20.9253 88.7764 20.86H89.1964C89.2058 20.9533 89.2151 21.0653 89.2244 21.196C89.2338 21.3173 89.2431 21.4573 89.2524 21.616C89.5324 21.364 89.8638 21.1633 90.2464 21.014C90.6384 20.8553 91.0304 20.776 91.4224 20.776C91.9638 20.776 92.4678 20.916 92.9344 21.196C93.4011 21.476 93.7791 21.8773 94.0684 22.4C94.3578 22.9133 94.5024 23.5293 94.5024 24.248C94.5024 25.0413 94.3344 25.7367 93.9984 26.334C93.6718 26.9313 93.2378 27.398 92.6964 27.734C92.1551 28.0607 91.5671 28.224 90.9324 28.224C90.6058 28.224 90.3024 28.182 90.0224 28.098C89.7518 28.0233 89.4951 27.9113 89.2524 27.762V30.086C89.2524 30.2727 89.2478 30.436 89.2384 30.576C89.2384 30.7253 89.2244 30.8793 89.1964 31.038C89.3458 31.0287 89.4904 31.0193 89.6304 31.01C89.7798 31.01 89.9291 31.0053 90.0784 30.996V31.57H87.2224ZM90.9044 27.664C91.3524 27.664 91.7351 27.5287 92.0524 27.258C92.3791 26.978 92.6264 26.6 92.7944 26.124C92.9718 25.6387 93.0604 25.088 93.0604 24.472C93.0604 23.968 92.9858 23.4873 92.8364 23.03C92.6964 22.5633 92.4678 22.1853 92.1504 21.896C91.8424 21.6067 91.4318 21.462 90.9184 21.462C90.6011 21.462 90.2931 21.5413 89.9944 21.7C89.7051 21.8493 89.4624 22.0313 89.2664 22.246C89.2664 22.2833 89.2664 22.3393 89.2664 22.414C89.2758 22.4793 89.2804 22.6007 89.2804 22.778C89.2804 22.946 89.2804 23.2027 89.2804 23.548C89.2804 23.884 89.2758 24.3413 89.2664 24.92C89.2664 25.4987 89.2664 26.2313 89.2664 27.118C89.4998 27.2953 89.7518 27.4307 90.0224 27.524C90.3024 27.6173 90.5964 27.664 90.9044 27.664ZM100.196 27.58C100.485 27.58 100.686 27.51 100.798 27.37C100.91 27.2207 100.975 27.02 100.994 26.768C101.013 26.5067 101.022 26.208 101.022 25.872V23.912C101.022 23.1093 100.891 22.5073 100.63 22.106C100.378 21.7047 99.9766 21.5087 99.4259 21.518C99.0806 21.5273 98.7399 21.6113 98.4039 21.77C98.0773 21.9287 97.8113 22.134 97.6059 22.386V26.516C97.6059 26.7027 97.6013 26.8707 97.5919 27.02C97.5826 27.16 97.5639 27.3093 97.5359 27.468C97.6853 27.4587 97.8299 27.454 97.9699 27.454C98.1193 27.4447 98.2686 27.4353 98.4179 27.426V28H95.5619V27.58C95.8513 27.58 96.0519 27.51 96.1639 27.37C96.2759 27.2207 96.3413 27.02 96.3599 26.768C96.3879 26.5067 96.4019 26.208 96.4019 25.872V19.25C96.4019 19.1007 96.4019 18.9607 96.4019 18.83C96.4113 18.69 96.4253 18.5267 96.4439 18.34C96.2759 18.3493 96.1079 18.3587 95.9399 18.368C95.7813 18.3773 95.6179 18.3867 95.4499 18.396V17.808C95.8606 17.808 96.1779 17.7893 96.4019 17.752C96.6353 17.7147 96.8079 17.668 96.9199 17.612C97.0413 17.556 97.1346 17.4953 97.1999 17.43H97.6059V21.7C97.8113 21.5227 98.0399 21.3687 98.2919 21.238C98.5533 21.098 98.8193 20.986 99.0899 20.902C99.3699 20.818 99.6406 20.776 99.9019 20.776C100.714 20.776 101.297 21.0327 101.652 21.546C102.016 22.05 102.203 22.8387 102.212 23.912L102.226 26.516C102.226 26.7027 102.221 26.8707 102.212 27.02C102.212 27.16 102.198 27.3093 102.17 27.468C102.319 27.4587 102.464 27.454 102.604 27.454C102.753 27.4447 102.903 27.4353 103.052 27.426V28H100.196V27.58ZM105.065 31.794C104.776 31.794 104.528 31.724 104.323 31.584C104.118 31.444 104.015 31.2293 104.015 30.94C104.015 30.772 104.071 30.618 104.183 30.478C104.295 30.338 104.44 30.268 104.617 30.268C104.841 30.2587 104.99 30.3287 105.065 30.478C105.149 30.6273 105.191 30.758 105.191 30.87C105.191 30.898 105.191 30.926 105.191 30.954C105.191 30.9913 105.186 31.0287 105.177 31.066C105.205 31.0847 105.256 31.094 105.331 31.094C105.443 31.094 105.564 31.0473 105.695 30.954C105.826 30.8607 105.942 30.7253 106.045 30.548C106.166 30.3427 106.306 30.0347 106.465 29.624C106.633 29.2133 106.82 28.7233 107.025 28.154L104.841 23.478C104.598 22.9553 104.421 22.54 104.309 22.232C104.206 21.924 104.136 21.6953 104.099 21.546L103.427 21.574V21H106.325V21.42H106.269C105.877 21.448 105.662 21.5973 105.625 21.868C105.588 22.1293 105.695 22.5307 105.947 23.072L107.585 26.586C107.8 25.9887 108.005 25.4007 108.201 24.822C108.397 24.234 108.593 23.6507 108.789 23.072C108.864 22.8667 108.938 22.6567 109.013 22.442C109.097 22.218 109.176 22.022 109.251 21.854C109.335 21.6767 109.41 21.5647 109.475 21.518L108.509 21.574V21H110.707V21.42C110.362 21.5507 110.1 21.77 109.923 22.078C109.755 22.3767 109.582 22.764 109.405 23.24L107.655 28.126C107.375 28.91 107.118 29.5727 106.885 30.114C106.652 30.6647 106.395 31.08 106.115 31.36C105.835 31.6493 105.485 31.794 105.065 31.794Z" fill="#768088"/>
</svg>
