<svg width="139" height="46" viewBox="0 0 139 46" fill="none" xmlns="http://www.w3.org/2000/svg">
<path d="M45.7004 28.14L42.5224 20.692C42.317 20.216 42.1724 19.8333 42.0884 19.544C42.0044 19.2453 41.9484 18.9933 41.9204 18.788C41.7897 18.7973 41.659 18.802 41.5284 18.802C41.3977 18.802 41.267 18.8067 41.1364 18.816V18.2H44.3844L44.3704 18.676C43.9037 18.704 43.6237 18.8487 43.5304 19.11C43.437 19.362 43.4837 19.7213 43.6704 20.188C43.8944 20.7387 44.109 21.2707 44.3144 21.784C44.5197 22.2973 44.7484 22.8527 45.0004 23.45C45.2244 23.9727 45.439 24.4767 45.6444 24.962C45.859 25.438 46.0224 25.8347 46.1344 26.152H46.1624C46.265 25.8253 46.3677 25.5127 46.4704 25.214C46.5824 24.9153 46.713 24.5607 46.8624 24.15C47.1424 23.366 47.3757 22.7033 47.5624 22.162C47.7584 21.6207 47.9264 21.1587 48.0664 20.776C48.2064 20.3933 48.3231 20.0667 48.4164 19.796C48.5004 19.5533 48.575 19.348 48.6404 19.18C48.7057 19.012 48.7664 18.872 48.8224 18.76C48.645 18.7693 48.4677 18.7787 48.2904 18.788C48.113 18.7973 47.931 18.8067 47.7444 18.816V18.2H50.5864V18.662C50.1757 18.6807 49.8584 18.788 49.6344 18.984C49.4197 19.18 49.2237 19.53 49.0464 20.034C49.0277 20.0807 49.0044 20.146 48.9764 20.23C48.9484 20.3047 48.9017 20.4307 48.8364 20.608C48.771 20.7853 48.6777 21.0467 48.5564 21.392C48.435 21.728 48.267 22.1853 48.0524 22.764C47.847 23.3427 47.581 24.0707 47.2544 24.948C46.937 25.8253 46.5497 26.8893 46.0924 28.14H45.7004ZM54.8691 28C54.8411 27.8413 54.8224 27.7013 54.8131 27.58C54.8037 27.4587 54.7897 27.3327 54.7711 27.202C54.4537 27.5193 54.1084 27.7713 53.7351 27.958C53.3711 28.1353 52.9837 28.224 52.5731 28.224C51.8637 28.224 51.3364 28.0653 50.9911 27.748C50.6457 27.4213 50.4731 27.0247 50.4731 26.558C50.4731 26.1287 50.6037 25.76 50.8651 25.452C51.1357 25.1347 51.4811 24.878 51.9011 24.682C52.3304 24.4767 52.7924 24.3273 53.2871 24.234C53.7911 24.1313 54.2764 24.0847 54.7431 24.094V23.226C54.7431 22.8993 54.7151 22.5913 54.6591 22.302C54.6031 22.0127 54.4817 21.7747 54.2951 21.588C54.1084 21.4013 53.8097 21.3033 53.3991 21.294C53.1284 21.2847 52.8484 21.336 52.5591 21.448C52.2791 21.56 52.0737 21.7513 51.9431 22.022C52.0177 22.0967 52.0644 22.1853 52.0831 22.288C52.1111 22.3813 52.1251 22.47 52.1251 22.554C52.1251 22.666 52.0784 22.7967 51.9851 22.946C51.8917 23.086 51.7284 23.1513 51.4951 23.142C51.2991 23.142 51.1497 23.0767 51.0471 22.946C50.9444 22.806 50.8931 22.6427 50.8931 22.456C50.8931 22.1387 51.0097 21.854 51.2431 21.602C51.4857 21.35 51.8171 21.1493 52.2371 21C52.6571 20.8507 53.1331 20.776 53.6651 20.776C54.4491 20.776 55.0277 20.986 55.4011 21.406C55.7744 21.8167 55.9564 22.47 55.9471 23.366C55.9471 23.7113 55.9471 24.0613 55.9471 24.416C55.9471 24.7613 55.9424 25.1113 55.9331 25.466C55.9331 25.8113 55.9331 26.1613 55.9331 26.516C55.9331 26.6653 55.9284 26.8147 55.9191 26.964C55.9097 27.1133 55.8957 27.2813 55.8771 27.468C56.0451 27.4587 56.2084 27.4493 56.3671 27.44C56.5351 27.4307 56.7031 27.4213 56.8711 27.412V28H54.8691ZM54.7431 24.57C54.4257 24.5793 54.0897 24.6213 53.7351 24.696C53.3897 24.7613 53.0677 24.864 52.7691 25.004C52.4797 25.144 52.2417 25.3307 52.0551 25.564C51.8777 25.788 51.7937 26.0633 51.8031 26.39C51.8217 26.7353 51.9337 26.9967 52.1391 27.174C52.3537 27.342 52.6057 27.426 52.8951 27.426C53.2777 27.426 53.6091 27.356 53.8891 27.216C54.1784 27.0667 54.4631 26.8613 54.7431 26.6C54.7337 26.4973 54.7291 26.3853 54.7291 26.264C54.7291 26.1427 54.7291 26.0167 54.7291 25.886C54.7291 25.8393 54.7291 25.69 54.7291 25.438C54.7384 25.186 54.7431 24.8967 54.7431 24.57ZM61.2478 28.224C60.6225 28.224 60.0438 28.084 59.5118 27.804C58.9892 27.5147 58.5692 27.104 58.2518 26.572C57.9438 26.0307 57.7898 25.382 57.7898 24.626C57.7898 24.1407 57.8785 23.6693 58.0558 23.212C58.2332 22.7547 58.4805 22.344 58.7978 21.98C59.1245 21.6067 59.5118 21.3127 59.9598 21.098C60.4078 20.8833 60.9025 20.776 61.4438 20.776C61.9665 20.776 62.4192 20.8553 62.8018 21.014C63.1938 21.1727 63.4972 21.3827 63.7118 21.644C63.9265 21.9053 64.0338 22.19 64.0338 22.498C64.0338 22.7033 63.9778 22.8807 63.8658 23.03C63.7538 23.17 63.5905 23.24 63.3758 23.24C63.1425 23.2493 62.9745 23.1793 62.8718 23.03C62.7785 22.8713 62.7318 22.7313 62.7318 22.61C62.7318 22.5167 62.7458 22.4233 62.7738 22.33C62.8018 22.2273 62.8578 22.134 62.9418 22.05C62.8672 21.826 62.7365 21.6627 62.5498 21.56C62.3632 21.448 62.1672 21.378 61.9618 21.35C61.7658 21.3127 61.6025 21.294 61.4718 21.294C60.8372 21.294 60.3005 21.5507 59.8618 22.064C59.4325 22.568 59.2178 23.3053 59.2178 24.276C59.2178 24.9013 59.3158 25.4567 59.5118 25.942C59.7172 26.4273 60.0018 26.81 60.3658 27.09C60.7298 27.3607 61.1498 27.496 61.6258 27.496C62.0645 27.496 62.4845 27.3793 62.8858 27.146C63.2872 26.9127 63.5998 26.628 63.8238 26.292L64.1878 26.572C63.9452 26.964 63.6512 27.2813 63.3058 27.524C62.9698 27.7667 62.6198 27.944 62.2558 28.056C61.9012 28.168 61.5652 28.224 61.2478 28.224ZM69.5116 28C69.4836 27.8413 69.465 27.7013 69.4556 27.58C69.4463 27.4587 69.4323 27.3327 69.4136 27.202C69.0963 27.5193 68.751 27.7713 68.3776 27.958C68.0136 28.1353 67.6263 28.224 67.2156 28.224C66.5063 28.224 65.979 28.0653 65.6336 27.748C65.2883 27.4213 65.1156 27.0247 65.1156 26.558C65.1156 26.1287 65.2463 25.76 65.5076 25.452C65.7783 25.1347 66.1236 24.878 66.5436 24.682C66.973 24.4767 67.435 24.3273 67.9296 24.234C68.4336 24.1313 68.919 24.0847 69.3856 24.094V23.226C69.3856 22.8993 69.3576 22.5913 69.3016 22.302C69.2456 22.0127 69.1243 21.7747 68.9376 21.588C68.751 21.4013 68.4523 21.3033 68.0416 21.294C67.771 21.2847 67.491 21.336 67.2016 21.448C66.9216 21.56 66.7163 21.7513 66.5856 22.022C66.6603 22.0967 66.707 22.1853 66.7256 22.288C66.7536 22.3813 66.7676 22.47 66.7676 22.554C66.7676 22.666 66.721 22.7967 66.6276 22.946C66.5343 23.086 66.371 23.1513 66.1376 23.142C65.9416 23.142 65.7923 23.0767 65.6896 22.946C65.587 22.806 65.5356 22.6427 65.5356 22.456C65.5356 22.1387 65.6523 21.854 65.8856 21.602C66.1283 21.35 66.4596 21.1493 66.8796 21C67.2996 20.8507 67.7756 20.776 68.3076 20.776C69.0916 20.776 69.6703 20.986 70.0436 21.406C70.417 21.8167 70.599 22.47 70.5896 23.366C70.5896 23.7113 70.5896 24.0613 70.5896 24.416C70.5896 24.7613 70.585 25.1113 70.5756 25.466C70.5756 25.8113 70.5756 26.1613 70.5756 26.516C70.5756 26.6653 70.571 26.8147 70.5616 26.964C70.5523 27.1133 70.5383 27.2813 70.5196 27.468C70.6876 27.4587 70.851 27.4493 71.0096 27.44C71.1776 27.4307 71.3456 27.4213 71.5136 27.412V28H69.5116ZM69.3856 24.57C69.0683 24.5793 68.7323 24.6213 68.3776 24.696C68.0323 24.7613 67.7103 24.864 67.4116 25.004C67.1223 25.144 66.8843 25.3307 66.6976 25.564C66.5203 25.788 66.4363 26.0633 66.4456 26.39C66.4643 26.7353 66.5763 26.9967 66.7816 27.174C66.9963 27.342 67.2483 27.426 67.5376 27.426C67.9203 27.426 68.2516 27.356 68.5316 27.216C68.821 27.0667 69.1056 26.8613 69.3856 26.6C69.3763 26.4973 69.3716 26.3853 69.3716 26.264C69.3716 26.1427 69.3716 26.0167 69.3716 25.886C69.3716 25.8393 69.3716 25.69 69.3716 25.438C69.381 25.186 69.3856 24.8967 69.3856 24.57ZM75.0107 28.224C74.796 28.224 74.5767 28.1913 74.3527 28.126C74.1287 28.07 73.9187 27.9533 73.7227 27.776C73.536 27.5987 73.3867 27.342 73.2747 27.006C73.1627 26.6607 73.1067 26.208 73.1067 25.648L73.1347 21.588L72.0567 21.602V21C72.2994 20.9907 72.5467 20.902 72.7987 20.734C73.0507 20.5567 73.2747 20.3187 73.4707 20.02C73.676 19.7213 73.816 19.3947 73.8907 19.04H74.3667V21H76.7187V21.546L74.3667 21.574L74.3387 25.466C74.3387 25.886 74.3714 26.2453 74.4367 26.544C74.5114 26.8333 74.628 27.0527 74.7867 27.202C74.9454 27.3513 75.1507 27.426 75.4027 27.426C75.664 27.426 75.9067 27.3513 76.1307 27.202C76.364 27.0527 76.5694 26.8473 76.7467 26.586L77.1247 26.894C76.9194 27.202 76.714 27.4447 76.5087 27.622C76.3127 27.7993 76.1214 27.93 75.9347 28.014C75.748 28.1073 75.5754 28.1633 75.4167 28.182C75.258 28.21 75.1227 28.224 75.0107 28.224ZM77.7928 27.58C78.0821 27.58 78.2828 27.51 78.3948 27.37C78.5068 27.2207 78.5721 27.02 78.5908 26.768C78.6094 26.5067 78.6188 26.208 78.6188 25.872V22.68C78.6188 22.5307 78.6234 22.3907 78.6328 22.26C78.6421 22.12 78.6561 21.9567 78.6748 21.77C78.5068 21.7793 78.3388 21.7887 78.1708 21.798C78.0121 21.8073 77.8488 21.8167 77.6808 21.826V21.238C78.0914 21.238 78.4088 21.2193 78.6328 21.182C78.8568 21.1447 79.0248 21.098 79.1368 21.042C79.2581 20.986 79.3514 20.9253 79.4168 20.86H79.8228V26.516C79.8228 26.7027 79.8181 26.8707 79.8088 27.02C79.8088 27.16 79.7948 27.3093 79.7668 27.468C79.9161 27.4587 80.0608 27.454 80.2008 27.454C80.3501 27.4447 80.4994 27.4353 80.6488 27.426V28H77.7928V27.58ZM79.1508 19.474C78.9548 19.474 78.7821 19.3947 78.6328 19.236C78.4834 19.0773 78.4088 18.8813 78.4088 18.648C78.4088 18.4147 78.4834 18.2187 78.6328 18.06C78.7914 17.892 78.9688 17.808 79.1648 17.808C79.3794 17.808 79.5568 17.892 79.6968 18.06C79.8461 18.2187 79.9208 18.4147 79.9208 18.648C79.9208 18.8813 79.8414 19.0773 79.6828 19.236C79.5334 19.3947 79.3561 19.474 79.1508 19.474ZM85.2023 28.224C84.5489 28.224 83.9563 28.0747 83.4243 27.776C82.8923 27.468 82.4676 27.048 82.1503 26.516C81.8423 25.9747 81.6883 25.3587 81.6883 24.668C81.6883 23.9307 81.8423 23.268 82.1503 22.68C82.4583 22.092 82.8783 21.63 83.4103 21.294C83.9423 20.9487 84.5396 20.776 85.2023 20.776C85.8556 20.776 86.4483 20.9347 86.9803 21.252C87.5123 21.56 87.9369 21.98 88.2543 22.512C88.5716 23.044 88.7303 23.6507 88.7303 24.332C88.7303 25.0507 88.5716 25.7087 88.2543 26.306C87.9463 26.894 87.5263 27.3607 86.9943 27.706C86.4623 28.0513 85.8649 28.224 85.2023 28.224ZM85.3143 27.664C85.8089 27.664 86.2009 27.524 86.4903 27.244C86.7796 26.964 86.9849 26.6 87.1063 26.152C87.2369 25.704 87.3023 25.2327 87.3023 24.738C87.3023 24.318 87.2603 23.9073 87.1763 23.506C87.1016 23.0953 86.9803 22.7267 86.8123 22.4C86.6443 22.064 86.4249 21.798 86.1543 21.602C85.8929 21.406 85.5756 21.308 85.2023 21.308C84.7169 21.308 84.3203 21.448 84.0123 21.728C83.7043 22.008 83.4756 22.372 83.3263 22.82C83.1863 23.268 83.1163 23.7487 83.1163 24.262C83.1163 24.8407 83.1956 25.3913 83.3543 25.914C83.5129 26.4273 83.7556 26.8473 84.0823 27.174C84.4089 27.5007 84.8196 27.664 85.3143 27.664ZM89.9197 28V27.58C90.209 27.58 90.4097 27.51 90.5217 27.37C90.6337 27.2207 90.699 27.02 90.7177 26.768C90.7364 26.5067 90.7457 26.208 90.7457 25.872L90.7597 22.68C90.7597 22.5307 90.7597 22.3813 90.7597 22.232C90.769 22.0827 90.7877 21.9287 90.8157 21.77C90.6477 21.7793 90.4797 21.7887 90.3117 21.798C90.153 21.8073 89.9897 21.8167 89.8217 21.826V21.238C90.2324 21.238 90.5404 21.2193 90.7457 21.182C90.9604 21.1447 91.119 21.098 91.2217 21.042C91.3244 20.986 91.4084 20.9253 91.4737 20.86H91.8797C91.889 20.9253 91.8937 21 91.8937 21.084C91.903 21.168 91.9124 21.2613 91.9217 21.364C91.931 21.4667 91.9357 21.5833 91.9357 21.714C92.141 21.5367 92.365 21.378 92.6077 21.238C92.8597 21.098 93.121 20.986 93.3917 20.902C93.6717 20.818 93.947 20.776 94.2177 20.776C95.0297 20.776 95.6224 21.0327 95.9957 21.546C96.369 22.05 96.5557 22.8387 96.5557 23.912V26.516C96.5557 26.7027 96.551 26.8707 96.5417 27.02C96.5417 27.16 96.5277 27.3093 96.4997 27.468C96.649 27.4587 96.7937 27.454 96.9337 27.454C97.083 27.4447 97.2324 27.4353 97.3817 27.426V28H94.5257V27.58C94.815 27.58 95.0157 27.51 95.1277 27.37C95.2397 27.2207 95.305 27.02 95.3237 26.768C95.3424 26.5067 95.3517 26.208 95.3517 25.872V23.912C95.3424 23.1093 95.207 22.5027 94.9457 22.092C94.6937 21.6813 94.2924 21.4807 93.7417 21.49C93.4057 21.4993 93.0744 21.588 92.7477 21.756C92.4304 21.924 92.1644 22.1387 91.9497 22.4C91.959 22.4747 91.9637 22.5587 91.9637 22.652C91.9637 22.7453 91.9637 22.8433 91.9637 22.946L91.9497 26.516C91.9497 26.7027 91.945 26.8707 91.9357 27.02C91.9357 27.16 91.9217 27.3093 91.8937 27.468C92.043 27.4587 92.1877 27.454 92.3277 27.454C92.477 27.4447 92.6264 27.4353 92.7757 27.426V28H89.9197Z" fill="#768088"/>
</svg>
