<svg width="139" height="46" viewBox="0 0 139 46" fill="none" xmlns="http://www.w3.org/2000/svg">
<path d="M57.522 21.154C57.5127 20.6033 57.4567 20.146 57.354 19.782C57.2513 19.418 57.0693 19.1473 56.808 18.97C56.556 18.7833 56.1873 18.6947 55.702 18.704H54.512L54.498 26.334C54.498 26.586 54.4933 26.8053 54.484 26.992C54.484 27.1693 54.4747 27.3187 54.456 27.44C54.652 27.4307 54.8433 27.4213 55.03 27.412C55.226 27.4027 55.422 27.3933 55.618 27.384V28H52.328V27.538C52.6827 27.5193 52.9207 27.4353 53.042 27.286C53.1727 27.1367 53.2427 26.936 53.252 26.684C53.2707 26.4227 53.28 26.1333 53.28 25.816L53.294 18.718L51.852 18.732C51.264 18.732 50.8487 18.928 50.606 19.32C50.3633 19.712 50.242 20.3233 50.242 21.154H49.724L49.808 18.2H57.97L58.054 21.154H57.522ZM58.782 27.58C59.0713 27.58 59.272 27.51 59.384 27.37C59.496 27.2207 59.5613 27.02 59.58 26.768C59.5987 26.5067 59.608 26.208 59.608 25.872V22.68C59.608 22.5307 59.608 22.3813 59.608 22.232C59.6173 22.0827 59.636 21.9287 59.664 21.77C59.496 21.7793 59.328 21.7887 59.16 21.798C59.0013 21.798 58.838 21.8027 58.67 21.812V21.238H59.104C59.5053 21.238 59.7807 21.2007 59.93 21.126C60.0887 21.042 60.2193 20.9533 60.322 20.86H60.728C60.7467 21.0093 60.7607 21.196 60.77 21.42C60.7793 21.6347 60.7887 21.91 60.798 22.246C60.938 22.0127 61.1293 21.784 61.372 21.56C61.6147 21.336 61.8853 21.1493 62.184 21C62.492 20.8507 62.814 20.776 63.15 20.776C63.4113 20.776 63.64 20.846 63.836 20.986C64.032 21.126 64.13 21.35 64.13 21.658C64.13 21.7327 64.1067 21.826 64.06 21.938C64.0133 22.0407 63.9387 22.134 63.836 22.218C63.7333 22.2927 63.598 22.33 63.43 22.33C63.2247 22.3207 63.0613 22.2413 62.94 22.092C62.8187 21.9333 62.772 21.7513 62.8 21.546C62.5667 21.5367 62.324 21.5973 62.072 21.728C61.8293 21.8587 61.6007 22.0407 61.386 22.274C61.1713 22.498 60.98 22.764 60.812 23.072L60.826 26.516C60.826 26.7027 60.8213 26.8707 60.812 27.02C60.812 27.16 60.798 27.3093 60.77 27.468C60.9193 27.4587 61.064 27.454 61.204 27.454C61.3533 27.4447 61.5027 27.4353 61.652 27.426V28H58.782V27.58ZM68.999 28C68.971 27.8413 68.9523 27.7013 68.943 27.58C68.9336 27.4587 68.9196 27.3327 68.901 27.202C68.5836 27.5193 68.2383 27.7713 67.865 27.958C67.501 28.1353 67.1136 28.224 66.703 28.224C65.9936 28.224 65.4663 28.0653 65.121 27.748C64.7756 27.4213 64.603 27.0247 64.603 26.558C64.603 26.1287 64.7336 25.76 64.995 25.452C65.2656 25.1347 65.611 24.878 66.031 24.682C66.4603 24.4767 66.9223 24.3273 67.417 24.234C67.921 24.1313 68.4063 24.0847 68.873 24.094V23.226C68.873 22.8993 68.845 22.5913 68.789 22.302C68.733 22.0127 68.6116 21.7747 68.425 21.588C68.2383 21.4013 67.9396 21.3033 67.529 21.294C67.2583 21.2847 66.9783 21.336 66.689 21.448C66.409 21.56 66.2036 21.7513 66.073 22.022C66.1476 22.0967 66.1943 22.1853 66.213 22.288C66.241 22.3813 66.255 22.47 66.255 22.554C66.255 22.666 66.2083 22.7967 66.115 22.946C66.0216 23.086 65.8583 23.1513 65.625 23.142C65.429 23.142 65.2796 23.0767 65.177 22.946C65.0743 22.806 65.023 22.6427 65.023 22.456C65.023 22.1387 65.1396 21.854 65.373 21.602C65.6156 21.35 65.947 21.1493 66.367 21C66.787 20.8507 67.263 20.776 67.795 20.776C68.579 20.776 69.1576 20.986 69.531 21.406C69.9043 21.8167 70.0863 22.47 70.077 23.366C70.077 23.7113 70.077 24.0613 70.077 24.416C70.077 24.7613 70.0723 25.1113 70.063 25.466C70.063 25.8113 70.063 26.1613 70.063 26.516C70.063 26.6653 70.0583 26.8147 70.049 26.964C70.0396 27.1133 70.0256 27.2813 70.007 27.468C70.175 27.4587 70.3383 27.4493 70.497 27.44C70.665 27.4307 70.833 27.4213 71.001 27.412V28H68.999ZM68.873 24.57C68.5556 24.5793 68.2196 24.6213 67.865 24.696C67.5196 24.7613 67.1976 24.864 66.899 25.004C66.6096 25.144 66.3716 25.3307 66.185 25.564C66.0076 25.788 65.9236 26.0633 65.933 26.39C65.9516 26.7353 66.0636 26.9967 66.269 27.174C66.4836 27.342 66.7356 27.426 67.025 27.426C67.4076 27.426 67.739 27.356 68.019 27.216C68.3083 27.0667 68.593 26.8613 68.873 26.6C68.8636 26.4973 68.859 26.3853 68.859 26.264C68.859 26.1427 68.859 26.0167 68.859 25.886C68.859 25.8393 68.859 25.69 68.859 25.438C68.8683 25.186 68.873 24.8967 68.873 24.57ZM74.4576 28.042L72.4556 23.478C72.3063 23.1233 72.1896 22.82 72.1056 22.568C72.0216 22.316 71.961 22.106 71.9236 21.938C71.8956 21.77 71.877 21.6347 71.8676 21.532L71.2656 21.574V21H73.8416V21.42C73.5616 21.42 73.3796 21.4947 73.2956 21.644C73.221 21.784 73.2116 21.9753 73.2676 22.218C73.3236 22.4513 73.4076 22.7033 73.5196 22.974L74.5976 25.438C74.6723 25.5967 74.7423 25.7647 74.8076 25.942C74.8823 26.11 74.9523 26.2873 75.0176 26.474H75.0316C75.0783 26.334 75.1296 26.1847 75.1856 26.026C75.251 25.8673 75.307 25.7133 75.3536 25.564L76.4736 22.498C76.5483 22.274 76.6276 22.078 76.7116 21.91C76.7956 21.742 76.8563 21.616 76.8936 21.532L75.9976 21.574V21H78.2096V21.42C78.0043 21.42 77.8316 21.49 77.6916 21.63C77.5516 21.77 77.4163 21.98 77.2856 22.26C77.1643 22.54 77.0196 22.89 76.8516 23.31L75.0176 28.042H74.4576ZM82.1856 28.224C81.5416 28.224 80.9583 28.0747 80.4356 27.776C79.9223 27.468 79.5163 27.0387 79.2176 26.488C78.919 25.928 78.7696 25.27 78.7696 24.514C78.7696 23.8607 78.9143 23.2493 79.2036 22.68C79.5023 22.1107 79.9176 21.6533 80.4496 21.308C80.9816 20.9533 81.5976 20.776 82.2976 20.776C82.6896 20.776 83.0536 20.8413 83.3896 20.972C83.735 21.0933 84.0383 21.2847 84.2996 21.546C84.561 21.798 84.7663 22.12 84.9156 22.512C85.065 22.8947 85.1396 23.3473 85.1396 23.87L80.2116 23.954C80.2116 24.6633 80.2863 25.2887 80.4356 25.83C80.5943 26.362 80.8463 26.7773 81.1916 27.076C81.537 27.3653 81.9803 27.51 82.5216 27.51C82.811 27.51 83.105 27.4587 83.4036 27.356C83.7116 27.2533 83.9963 27.1133 84.2576 26.936C84.519 26.7587 84.729 26.5627 84.8876 26.348L85.2236 26.628C84.9716 27.02 84.6683 27.3327 84.3136 27.566C83.959 27.7993 83.595 27.9673 83.2216 28.07C82.8483 28.1727 82.503 28.224 82.1856 28.224ZM80.2536 23.366H83.8236C83.8236 23.03 83.7723 22.708 83.6696 22.4C83.5763 22.0827 83.4176 21.826 83.1936 21.63C82.9696 21.4247 82.6756 21.322 82.3116 21.322C81.7703 21.322 81.3176 21.4853 80.9536 21.812C80.599 22.1293 80.3656 22.6473 80.2536 23.366ZM86.2455 27.58C86.5349 27.58 86.7355 27.51 86.8475 27.37C86.9595 27.2207 87.0249 27.02 87.0435 26.768C87.0622 26.5067 87.0715 26.208 87.0715 25.872V19.25C87.0715 19.1007 87.0715 18.9607 87.0715 18.83C87.0809 18.69 87.0949 18.5267 87.1135 18.34C86.9455 18.3493 86.7775 18.3587 86.6095 18.368C86.4509 18.3773 86.2875 18.3867 86.1195 18.396V17.808C86.5302 17.808 86.8475 17.7893 87.0715 17.752C87.3049 17.7147 87.4775 17.668 87.5895 17.612C87.7109 17.556 87.8042 17.4953 87.8695 17.43H88.2755L88.2895 26.516C88.2895 26.7027 88.2849 26.8707 88.2755 27.02C88.2662 27.16 88.2475 27.3093 88.2195 27.468C88.3689 27.4587 88.5135 27.454 88.6535 27.454C88.8029 27.4447 88.9522 27.4353 89.1015 27.426V28H86.2455V27.58Z" fill="#768088"/>
</svg>
